<svg viewBox="0 0 20 20" fill="none" xmlns="http://www.w3.org/2000/svg">
<path d="M0.86781 16.3106C3.85031 16.4015 6.74668 16.8267 8.88798 17.8063C9.5939 18.1301 10.4039 18.1299 11.1124 17.8065L11.1126 17.8064C13.2539 16.8267 16.1496 16.4015 19.1322 16.3106L19.361 16.3037V16.0747V2.60449V2.36118L19.1178 2.36861C15.6865 2.4734 12.2895 3.01636 10 4.38648C7.7105 3.01636 4.3135 2.4734 0.882204 2.36861L0.639004 2.36118V2.60449V16.0747V16.3037L0.86781 16.3106ZM9.00359 15.663C7.76682 15.245 5.53831 14.6293 2.63183 14.4081V4.46216C6.2131 4.75993 7.93361 5.50172 9.00359 6.1171V15.663ZM17.3682 4.46216V14.4081C14.4624 14.6293 12.2334 15.245 10.9964 15.6636V6.11546C12.0535 5.50662 13.7788 4.76067 17.3682 4.46216Z" fill="currentColor" stroke="currentColor" stroke-width="0.471992"/>
</svg>
