<svg viewBox="0 0 80 80" fill="none" xmlns="http://www.w3.org/2000/svg">
<path d="M44.8 56.5999H35.2C34.5376 56.5999 34 57.1375 34 57.7999C34 58.4623 34.5376 58.9999 35.2 58.9999H44.8C45.4624 58.9999 46 58.4623 46 57.7999C46 57.1375 45.4624 56.5999 44.8 56.5999ZM44.8 61.3999H35.2C34.5376 61.3999 34 61.9375 34 62.5999C34 63.2623 34.5376 63.7999 35.2 63.7999H44.8C45.4624 63.7999 46 63.2623 46 62.5999C46 61.9375 45.4624 61.3999 44.8 61.3999ZM45.4 66.1999H34.6L37.4512 68.0767C37.8208 68.4079 38.3632 68.5999 38.9272 68.5999H41.0752C41.6368 68.5999 42.1816 68.4079 42.5512 68.0767L45.4 66.1999ZM54.4 33.0823C54.4 41.6479 46.6864 47.4415 46.6864 54.1999H33.3136C33.3136 47.4415 25.6 41.6479 25.6 33.0823C25.6 24.1471 32.7952 19.2295 39.9928 19.2295C47.1952 19.2295 54.4 24.1519 54.4 33.0823ZM64 31.4239V34.7167H57.9088C57.9568 34.1815 58 33.6415 58 33.0823C58 32.5135 57.9592 31.9687 57.916 31.4263L64 31.4239ZM38.4448 15.6967V10.9999H41.7352V15.7135C41.1544 15.6607 40.5736 15.6295 39.9928 15.6295C39.4768 15.6295 38.9608 15.6535 38.4448 15.6967ZM29.4616 18.8023L26.9656 14.1463L29.8648 12.5911L32.3536 17.2303C31.3504 17.6647 30.3808 18.1927 29.4616 18.8023ZM54.868 22.9663L59.5288 19.6207L61.4464 22.2967L56.5168 25.8319C56.0584 24.7999 55.5016 23.8471 54.868 22.9663ZM47.644 17.2327L50.1352 12.5911L53.0344 14.1463L50.536 18.8047C49.6192 18.1951 48.6496 17.6695 47.644 17.2327ZM23.4808 25.8319L18.5512 22.2991L20.4688 19.6231L25.1296 22.9663C24.496 23.8447 23.9416 24.7975 23.4808 25.8319ZM56.3776 40.7671L62.0272 43.0567L60.7936 46.1071L54.9736 43.7503C55.4776 42.7975 55.9528 41.8015 56.3776 40.7671ZM24.9184 43.5391L19.264 46.0831L17.9152 43.0807L23.5312 40.5559C23.9464 41.5951 24.4216 42.5839 24.9184 43.5391ZM22.0912 34.7167H16V31.4239H22.084C22.0408 31.9663 22 32.5135 22 33.0823C22 33.6415 22.0432 34.1815 22.0912 34.7167Z" fill="currentColor"/>
</svg>
