<svg viewBox="0 0 80 80" fill="none" xmlns="http://www.w3.org/2000/svg">
<path d="M45.019 29.1818L48.4538 25.7647L51.891 29.2408L48.4538 32.6579L45.019 29.1818ZM51.8934 70H66.4785V38.0417H51.8934V70ZM50.5346 23.6997L53.9718 27.1758L57.46 23.7096L54.0204 20.231L50.5346 23.6997ZM51.9712 13.9869L63.5687 25.7156L66.4785 11L51.9712 13.9869ZM32.4467 70H47.0317V47.875H32.4467V70ZM13 70H27.585V55.25H13V70ZM46.373 34.7254L42.9358 31.2493L39.4111 34.7524L32.1185 27.3725L13.0583 46.5401L16.4858 50.026L32.1088 34.3173L39.3795 41.6751L46.373 34.7254Z" fill="currentColor"/>
</svg>
