<svg viewBox="0 0 32 33" fill="none" xmlns="http://www.w3.org/2000/svg">
<path d="M16 0.5C24.8366 0.5 32 7.66344 32 16.5C32 25.3366 24.8366 32.5 16 32.5C7.16344 32.5 0 25.3366 0 16.5C0 7.66344 7.16344 0.5 16 0.5ZM16 2.5C8.26801 2.5 2 8.76801 2 16.5C2 24.232 8.26801 30.5 16 30.5C23.732 30.5 30 24.232 30 16.5C30 8.76801 23.732 2.5 16 2.5ZM11.6189 10.7274L11.7574 10.8431L16 15.0858L20.2426 10.8431C20.5898 10.496 21.1286 10.4574 21.5184 10.7274L21.6569 10.8431C22.004 11.1903 22.0426 11.7291 21.7726 12.1189L21.6569 12.2574L17.4142 16.5L21.6569 20.7426C22.004 21.0898 22.0426 21.6286 21.7726 22.0184L21.6569 22.1569C21.3097 22.504 20.7709 22.5426 20.3811 22.2726L20.2426 22.1569L16 17.9142L11.7574 22.1569C11.4102 22.504 10.8714 22.5426 10.4816 22.2726L10.3431 22.1569C9.99601 21.8097 9.95744 21.2709 10.2274 20.8811L10.3431 20.7426L14.5858 16.5L10.3431 12.2574C9.99601 11.9102 9.95744 11.3714 10.2274 10.9816L10.3431 10.8431C10.6903 10.496 11.2291 10.4574 11.6189 10.7274Z" fill="currentColor"/>
</svg>
