<svg viewBox="0 0 49 48" fill="none" xmlns="http://www.w3.org/2000/svg">
  <path d="M33.898 37.2996C36.8114 37.2996 39.8326 36.622 41.598 35.3368V36.2496C41.598 37.9898 38.014 39.3996 33.898 39.3996C29.7834 39.3996 26.198 37.9898 26.198 36.2496V35.3368C27.962 36.622 30.986 37.2996 33.898 37.2996ZM33.898 30.2996C36.8114 30.2996 39.8326 29.622 41.598 28.3368V29.2496C41.598 30.9884 38.014 32.3996 33.898 32.3996C29.7834 32.3996 26.198 30.9898 26.198 29.2496V28.3368C27.962 29.622 30.986 30.2996 33.898 30.2996ZM33.898 33.7996C36.8114 33.7996 39.8326 33.122 41.598 31.8382V32.7496C41.598 34.4898 38.014 35.8996 33.898 35.8996C29.7834 35.8996 26.198 34.4898 26.198 32.7496V31.8382C27.962 33.122 30.986 33.7996 33.898 33.7996ZM33.898 26.7996C36.8114 26.7996 39.8326 26.122 41.598 24.8382V25.7496C41.598 27.4898 38.014 28.8996 33.898 28.8996C29.7834 28.8996 26.198 27.4898 26.198 25.7496V24.8382C27.962 26.122 30.986 26.7996 33.898 26.7996ZM33.898 8.59961C29.7834 8.59961 26.198 10.0094 26.198 11.7496C26.198 13.4898 29.7834 14.8996 33.898 14.8996C38.014 14.8996 41.598 13.4898 41.598 11.7496C41.598 10.0094 38.014 8.59961 33.898 8.59961ZM33.898 23.2996C36.8114 23.2996 39.8326 22.622 41.598 21.3368V22.2496C41.598 23.9898 38.014 25.3996 33.898 25.3996C29.7834 25.3996 26.198 23.9898 26.198 22.2496V21.3368C27.962 22.622 30.986 23.2996 33.898 23.2996ZM33.898 16.2996C36.8114 16.2996 39.8326 15.622 41.598 14.3368V15.2496C41.598 16.9898 38.014 18.3996 33.898 18.3996C29.7834 18.3996 26.198 16.9898 26.198 15.2496V14.3368C27.962 15.622 30.986 16.2996 33.898 16.2996ZM33.898 19.7996C36.8114 19.7996 39.8326 19.122 41.598 17.8382V18.7496C41.598 20.4898 38.014 21.8996 33.898 21.8996C29.7834 21.8996 26.198 20.4898 26.198 18.7496V17.8382C27.962 19.122 30.986 19.7996 33.898 19.7996ZM15.698 22.5996C11.5834 22.5996 7.99805 24.0094 7.99805 25.7496C7.99805 27.4898 11.5834 28.8996 15.698 28.8996C19.814 28.8996 23.398 27.4898 23.398 25.7496C23.398 24.0094 19.814 22.5996 15.698 22.5996ZM15.698 37.2996C18.6114 37.2996 21.6326 36.622 23.398 35.3368V36.2496C23.398 37.9898 19.814 39.3996 15.698 39.3996C11.5834 39.3996 7.99805 37.9898 7.99805 36.2496V35.3368C9.76205 36.622 12.786 37.2996 15.698 37.2996ZM15.698 30.2996C18.6114 30.2996 21.6326 29.622 23.398 28.3368V29.2496C23.398 30.9898 19.814 32.3996 15.698 32.3996C11.5834 32.3996 7.99805 30.9898 7.99805 29.2496V28.3368C9.76205 29.622 12.786 30.2996 15.698 30.2996ZM15.698 33.7996C18.6114 33.7996 21.6326 33.122 23.398 31.8382V32.7496C23.398 34.4898 19.814 35.8996 15.698 35.8996C11.5834 35.8996 7.99805 34.4898 7.99805 32.7496V31.8382C9.76205 33.122 12.786 33.7996 15.698 33.7996Z" fill="currentColor"/>
</svg>
