<svg viewBox="0 0 49 48" fill="none" xmlns="http://www.w3.org/2000/svg">
<path fill-rule="evenodd" clip-rule="evenodd" d="M36.272 38.7002L33.9984 37.4836L31.7234 38.7002L32.177 36.162L30.3178 34.3742L32.8728 34.0214L33.9984 31.7002L35.124 34.0214L37.679 34.3742L35.8184 36.162L36.272 38.7002ZM26.472 38.7002L24.1984 37.4836L21.9234 38.7002L22.3784 36.162L20.5178 34.3742L23.0728 34.0214L24.1984 31.7002L25.324 34.0214L27.879 34.3742L26.0184 36.162L26.472 38.7002V38.7002ZM16.672 38.7002L14.3984 37.4836L12.1234 38.7002L12.5784 36.162L10.7178 34.3742L13.2728 34.0214L14.3984 31.7002L15.524 34.0214L18.079 34.3742L16.2184 36.162L16.672 38.7002V38.7002ZM39.5984 29.6002H8.79844C8.02564 29.6002 7.39844 30.226 7.39844 31.0002V39.4002C7.39844 40.1744 8.02564 40.8002 8.79844 40.8002H39.5984C40.3726 40.8002 40.9984 40.1744 40.9984 39.4002V31.0002C40.9984 30.226 40.3726 29.6002 39.5984 29.6002ZM7.40124 28.2002H14.3984C14.4096 26.5006 14.397 24.9956 14.3984 23.982C14.4054 18.3918 16.847 19.6196 16.847 14.6538C16.847 12.544 15.4708 11.4002 13.6998 11.4002C11.0832 11.4002 9.26324 13.902 11.7412 18.5808C12.5546 20.1194 10.8732 20.4834 9.06724 20.9006C7.50204 21.2618 7.39844 22.3664 7.39844 23.6908L7.40124 28.2002V28.2002ZM39.3296 20.9006C37.5236 20.4834 35.8422 20.1194 36.6556 18.5808C39.1336 13.902 37.3136 11.4002 34.697 11.4002C32.926 11.4002 31.5498 12.544 31.5498 14.6538C31.5498 19.3074 33.9564 18.4394 33.9984 24.0002C34.0096 25.361 33.9858 25.8356 33.9984 28.2002H40.9956L40.9984 23.6908C40.9984 22.3664 40.8948 21.2618 39.3296 20.9006V20.9006ZM32.5942 28.2002H15.8012L15.7984 23.8238C15.7984 22.0626 15.9384 20.349 18.0216 19.8674C20.3792 19.3228 22.7032 18.837 21.5846 16.7748C18.2722 10.6652 20.641 7.2002 24.197 7.2002C27.6844 7.2002 30.1134 10.5364 26.8094 16.7748C25.7244 18.8244 27.9658 19.3116 30.3724 19.8674C32.4584 20.349 32.597 22.064 32.597 23.828L32.5942 28.2002Z" fill="currentColor"/>
</svg>
