<svg viewBox="0 0 112 93" fill="none" xmlns="http://www.w3.org/2000/svg">
<path d="M32.8507 64.4043C32.8507 64.4043 28.9962 60.5498 24.3507 55.9043C19.7052 51.2588 23.8498 42.9034 30.3507 49.4043C38.8507 57.9043 51.8507 65.4043 51.8507 71.9043C51.8507 78.2634 51.8507 84.9383 51.8507 87.4091C51.8507 87.9614 51.403 88.4043 50.8507 88.4043H32.8507" stroke="currentColor" stroke-width="2"/>
<path d="M79.6866 64.4043C79.6866 64.4043 83.5411 60.5498 88.1866 55.9043C92.8322 51.2588 88.6876 42.9034 82.1866 49.4043C73.6866 57.9043 60.6866 65.4043 60.6866 71.9043C60.6866 78.2634 60.6866 84.9383 60.6866 87.4091C60.6866 87.9614 61.1284 88.4043 61.6807 88.4043C64.6415 88.4043 73.5752 88.4043 79.6866 88.4043" stroke="currentColor" stroke-width="2"/>
<path d="M31.8507 88.4043C31.8507 88.9566 32.2984 89.4043 32.8507 89.4043C33.403 89.4043 33.8507 88.9566 33.8507 88.4043L31.8507 88.4043ZM25.8507 26.4043H26.8507H25.8507ZM32.0324 81.3303L31.237 81.9364L32.0324 81.3303ZM33.8507 88.4043L33.8507 83.7545L31.8507 83.7545L31.8507 88.4043L33.8507 88.4043ZM32.8279 80.7243L19.2827 62.9462L17.6918 64.1583L31.237 81.9364L32.8279 80.7243ZM17.8507 58.7055C17.8507 51.4436 17.8507 31.6791 17.8507 26.4043L15.8507 26.4043C15.8507 31.6796 15.8507 51.443 15.8507 58.7055L17.8507 58.7055ZM17.8507 26.4043C17.8507 25.024 18.3213 24.0744 18.9506 23.4684C19.5922 22.8506 20.4615 22.5293 21.3507 22.5293C22.2399 22.5293 23.1092 22.8506 23.7508 23.4684C24.3801 24.0744 24.8507 25.024 24.8507 26.4043H26.8507C26.8507 24.5346 26.1963 23.0467 25.1381 22.0277C24.0922 21.0205 22.7115 20.5293 21.3507 20.5293C19.9899 20.5293 18.6092 21.0205 17.5633 22.0277C16.5051 23.0467 15.8507 24.5346 15.8507 26.4043L17.8507 26.4043ZM24.8507 26.4043C24.8507 32.9043 24.8507 37.1543 24.8507 39.7793C24.8507 41.0918 24.8507 41.998 24.8507 42.5762C24.8507 42.8652 24.8507 43.0723 24.8507 43.207C24.8507 43.2744 24.8507 43.3237 24.8507 43.3562C24.8507 43.3724 24.8507 43.3845 24.8507 43.3924C24.8507 43.3964 24.8507 43.3994 24.8507 43.4013C24.8507 43.4023 24.8507 43.4031 24.8507 43.4036C24.8507 43.4038 24.8507 43.404 24.8507 43.4041C24.8507 43.4042 24.8507 43.4042 24.8507 43.4043C24.8507 43.4043 24.8507 43.4043 25.8507 43.4043C26.8507 43.4043 26.8507 43.4043 26.8507 43.4043C26.8507 43.4042 26.8507 43.4042 26.8507 43.4041C26.8507 43.404 26.8507 43.4038 26.8507 43.4036C26.8507 43.4031 26.8507 43.4023 26.8507 43.4013C26.8507 43.3994 26.8507 43.3964 26.8507 43.3924C26.8507 43.3845 26.8507 43.3724 26.8507 43.3562C26.8507 43.3237 26.8507 43.2744 26.8507 43.207C26.8507 43.0723 26.8507 42.8652 26.8507 42.5762C26.8507 41.998 26.8507 41.0918 26.8507 39.7793C26.8507 37.1543 26.8507 32.9043 26.8507 26.4043L24.8507 26.4043ZM19.2827 62.9462C18.3537 61.7269 17.8507 60.2381 17.8507 58.7055L15.8507 58.7055C15.8507 60.6764 16.4976 62.5909 17.6918 64.1583L19.2827 62.9462ZM33.8507 83.7545C33.8507 82.6597 33.4914 81.5951 32.8279 80.7243L31.237 81.9364C31.6351 82.4589 31.8507 83.0976 31.8507 83.7545L33.8507 83.7545Z" fill="currentColor"/>
<path d="M80.8507 88.4043C80.8507 88.9566 80.403 89.4043 79.8507 89.4043C79.2984 89.4043 78.8507 88.9566 78.8507 88.4043L80.8507 88.4043ZM86.8507 26.4043H85.8507H86.8507ZM78.8507 88.4043L78.8507 83.7545L80.8507 83.7545L80.8507 88.4043L78.8507 88.4043ZM79.8736 80.7243L93.4187 62.9462L95.0096 64.1583L81.4644 81.9364L79.8736 80.7243ZM94.8507 58.7055C94.8507 51.4436 94.8507 31.6791 94.8507 26.4043L96.8507 26.4043C96.8507 31.6796 96.8507 51.443 96.8507 58.7055L94.8507 58.7055ZM94.8507 26.4043C94.8507 25.024 94.3801 24.0744 93.7508 23.4684C93.1092 22.8506 92.2399 22.5293 91.3507 22.5293C90.4615 22.5293 89.5922 22.8506 88.9506 23.4684C88.3213 24.0744 87.8507 25.024 87.8507 26.4043H85.8507C85.8507 24.5346 86.5051 23.0467 87.5633 22.0277C88.6092 21.0205 89.9899 20.5293 91.3507 20.5293C92.7115 20.5293 94.0922 21.0205 95.1381 22.0277C96.1963 23.0467 96.8507 24.5346 96.8507 26.4043L94.8507 26.4043ZM87.8507 26.4043C87.8507 32.9043 87.8507 37.1543 87.8507 39.7793C87.8507 41.0918 87.8507 41.998 87.8507 42.5762C87.8507 42.8652 87.8507 43.0723 87.8507 43.207C87.8507 43.2744 87.8507 43.3237 87.8507 43.3562C87.8507 43.3724 87.8507 43.3845 87.8507 43.3924C87.8507 43.3964 87.8507 43.3994 87.8507 43.4013C87.8507 43.4023 87.8507 43.4031 87.8507 43.4036C87.8507 43.4038 87.8507 43.404 87.8507 43.4041C87.8507 43.4042 87.8507 43.4042 87.8507 43.4043C87.8507 43.4043 87.8507 43.4043 86.8507 43.4043C85.8507 43.4043 85.8507 43.4043 85.8507 43.4043C85.8507 43.4042 85.8507 43.4042 85.8507 43.4041C85.8507 43.404 85.8507 43.4038 85.8507 43.4036C85.8507 43.4031 85.8507 43.4023 85.8507 43.4013C85.8507 43.3994 85.8507 43.3964 85.8507 43.3924C85.8507 43.3845 85.8507 43.3724 85.8507 43.3562C85.8507 43.3237 85.8507 43.2744 85.8507 43.207C85.8507 43.0723 85.8507 42.8652 85.8507 42.5762C85.8507 41.998 85.8507 41.0918 85.8507 39.7793C85.8507 37.1543 85.8507 32.9043 85.8507 26.4043L87.8507 26.4043ZM93.4187 62.9462C94.3478 61.7269 94.8507 60.2381 94.8507 58.7055L96.8507 58.7055C96.8507 60.6764 96.2038 62.5909 95.0096 64.1583L93.4187 62.9462ZM78.8507 83.7545C78.8507 82.6597 79.21 81.5951 79.8736 80.7243L81.4644 81.9364C81.0663 82.4589 80.8507 83.0976 80.8507 83.7545L78.8507 83.7545Z" fill="currentColor"/>
<path d="M54.3649 59.0714C54.4576 59.6159 54.9741 59.9821 55.5185 59.8894C56.063 59.7968 56.4292 59.2803 56.3365 58.7358L54.3649 59.0714ZM56.3365 58.7358C54.3641 47.1488 55.5978 37.1462 57.3242 30.0416C58.1873 26.49 59.1727 23.6662 59.9395 21.7358C60.3228 20.7708 60.6513 20.0296 60.8822 19.533C60.9977 19.2847 61.0887 19.0976 61.15 18.9743C61.1806 18.9126 61.2038 18.8669 61.2189 18.8375C61.2264 18.8228 61.2319 18.8121 61.2353 18.8056C61.237 18.8023 61.2382 18.8001 61.2388 18.7989C61.2391 18.7983 61.2393 18.7979 61.2393 18.7979C61.2394 18.7978 61.2393 18.7979 61.2393 18.7979C61.2392 18.7981 61.2391 18.7984 60.3545 18.3319C59.47 17.8654 59.4698 17.8658 59.4696 17.8662C59.4694 17.8665 59.4692 17.867 59.4689 17.8675C59.4684 17.8684 59.4678 17.8696 59.467 17.8711C59.4655 17.8741 59.4634 17.878 59.4608 17.8831C59.4555 17.8931 59.4482 17.9073 59.4388 17.9257C59.4201 17.9623 59.3932 18.0153 59.3588 18.0844C59.2901 18.2227 59.1916 18.4253 59.0687 18.6897C58.8228 19.2186 58.4791 19.9947 58.0808 20.9974C57.2843 23.0025 56.2687 25.9155 55.3808 29.5694C53.6053 36.8758 52.3371 47.1591 54.3649 59.0714L56.3365 58.7358Z" fill="currentColor"/>
<path d="M54.4961 47.0516C64.3485 47.406 73.8507 39.4043 73.8507 26.4043C73.8507 13.4043 65.3506 2.40616 65.3506 2.40616C65.3506 2.40616 48.8508 11.4044 45.351 24.4046C41.8512 37.4048 47.3506 43.9061 47.3506 43.9061" stroke="currentColor" stroke-width="2"/>
</svg>
