<svg viewBox="0 0 93 93" fill="none" xmlns="http://www.w3.org/2000/svg">
<path d="M80.0846 54.188C86.9899 54.188 93 51.5879 93 48.3755C93 45.1631 86.986 42.563 80.0846 42.563C73.1833 42.563 67.1693 45.1631 67.1693 48.3755C67.1693 51.5879 73.1794 54.188 80.0846 54.188ZM80.0846 69.688C84.971 69.688 90.0434 68.4364 93 66.0688V67.7505C93 70.9629 86.986 73.625 80.0846 73.625C73.1833 73.625 67.1693 70.9629 67.1693 67.7505V66.0688C70.1259 68.4403 75.1944 69.688 80.0846 69.688ZM80.0846 56.7726C84.971 56.7726 90.0434 55.521 93 53.1534V54.8351C93 58.0475 86.986 60.6476 80.0846 60.6476C73.1833 60.6476 67.1693 58.0475 67.1693 54.8351V53.1534C70.1259 55.521 75.1944 56.7726 80.0846 56.7726ZM80.0846 63.2323C84.971 63.2323 90.0434 61.9806 93 59.6091V61.2948C93 64.5033 86.986 67.1073 80.0846 67.1073C73.1833 67.1073 67.1693 64.5033 67.1693 61.2948V59.6091C70.1259 61.9806 75.1944 63.2323 80.0846 63.2323ZM69.75 23.25H3.875V62H0V19.375H69.75V23.25ZM7.75 27.125V69.75H62V48.3755C62 41.4315 69.6919 37.8743 77.5 37.2349V27.125H7.75Z" fill="currentColor"/>
</svg>
