<svg viewBox="0 0 112 93" fill="none" xmlns="http://www.w3.org/2000/svg">
<path d="M80.3951 67.2931L81.1022 66.586L81.0887 66.5724L81.0746 66.5593L80.3951 67.2931ZM75.3629 72.9985L76.07 72.2914L76.052 72.2734L76.0331 72.2563L75.3629 72.9985ZM66.0657 63.2556C65.6558 62.8854 65.0234 62.9177 64.6533 63.3276C64.2832 63.7375 64.3154 64.3698 64.7253 64.7399L66.0657 63.2556ZM56.719 46.733L79.7157 68.0268L81.0746 66.5593L58.0779 45.2655L56.719 46.733ZM79.688 68.0002C80.4797 68.7919 80.7018 69.5496 80.6646 70.1797C80.6259 70.8356 80.2976 71.4838 79.7606 72.0015C78.6312 73.0903 77.0479 73.2693 76.07 72.2914L74.6558 73.7056C76.6771 75.7269 79.5445 74.9878 81.1487 73.4414C81.9785 72.6414 82.5877 71.5427 82.6612 70.2975C82.7362 69.0265 82.2451 67.7289 81.1022 66.586L79.688 68.0002ZM76.0331 72.2563L66.0657 63.2556L64.7253 64.7399L74.6927 73.7407L76.0331 72.2563Z" fill="currentColor"/>
<path d="M66.0788 63.2681C65.6741 62.8924 65.0413 62.916 64.6656 63.3207C64.2899 63.7255 64.3134 64.3582 64.7182 64.734L66.0788 63.2681ZM72.3993 70.4994L73.1064 69.7923L73.0932 69.7792L73.0796 69.7665L72.3993 70.4994ZM67.3993 76.4994L68.1064 75.7923L68.0949 75.7809L68.0831 75.7698L67.3993 76.4994ZM60.0816 68.2711C59.6786 67.8934 59.0458 67.9139 58.6681 68.3169C58.2904 68.7199 58.311 69.3527 58.714 69.7304L60.0816 68.2711ZM64.7182 64.734L71.719 71.2324L73.0796 69.7665L66.0788 63.2681L64.7182 64.734ZM71.6922 71.2065C72.5194 72.0338 72.8033 72.8761 72.7977 73.609C72.792 74.3603 72.4809 75.0817 71.9733 75.6377C71.4634 76.1961 70.7952 76.5446 70.1291 76.6051C69.4897 76.6632 68.779 76.465 68.1064 75.7923L66.6922 77.2066C67.7695 78.2839 69.0589 78.7107 70.3101 78.5969C71.5346 78.4856 72.6477 77.8652 73.4503 76.9862C74.2551 76.1047 74.7878 74.9198 74.7977 73.6243C74.8077 72.3103 74.2791 70.9651 73.1064 69.7923L71.6922 71.2065ZM68.0831 75.7698L60.0816 68.2711L58.714 69.7304L66.7155 77.2291L68.0831 75.7698Z" fill="currentColor"/>
<path d="M60.0675 68.2598C59.6588 67.8884 59.0263 67.9187 58.6549 68.3274C58.2835 68.7362 58.3138 69.3686 58.7226 69.74L60.0675 68.2598ZM64.8967 73.9988L65.6038 73.2917L65.5868 73.2748L65.5691 73.2587L64.8967 73.9988ZM59.8991 79.9983L59.1919 80.7053L59.192 80.7054L59.8991 79.9983ZM54.6069 73.2904C54.2165 72.8998 53.5833 72.8997 53.1927 73.2902C52.8021 73.6807 52.8021 74.3138 53.1925 74.7044L54.6069 73.2904ZM58.7226 69.74L64.2242 74.7389L65.5691 73.2587L60.0675 68.2598L58.7226 69.74ZM64.1895 74.7059C65.0169 75.5333 65.3009 76.3756 65.2955 77.1085C65.2899 77.8598 64.9791 78.5811 64.4718 79.1369C63.9622 79.6952 63.2944 80.0435 62.6285 80.104C61.9895 80.1621 61.2789 79.9639 60.6062 79.2912L59.192 80.7054C60.2693 81.7827 61.5585 82.2095 62.8096 82.0958C64.0339 81.9846 65.1467 81.3642 65.949 80.4852C66.7536 79.6036 67.2859 78.4188 67.2954 77.1233C67.3052 75.8095 66.7764 74.4644 65.6038 73.2917L64.1895 74.7059ZM60.6063 79.2913L54.6069 73.2904L53.1925 74.7044L59.1919 80.7053L60.6063 79.2913Z" fill="currentColor"/>
<path d="M54.6056 73.2922C54.2151 72.9016 53.582 72.9015 53.1914 73.292C52.8008 73.6825 52.8008 74.3157 53.1913 74.7062L54.6056 73.2922ZM57.3991 77.5005L56.6919 78.2075L56.6919 78.2076L57.3991 77.5005ZM52.3991 83.5005L51.6917 84.2074L51.6919 84.2076L52.3991 83.5005ZM52.1058 81.7923C51.7154 81.4017 51.0822 81.4015 50.6916 81.7919C50.3009 82.1823 50.3007 82.8154 50.6911 83.2061L52.1058 81.7923ZM53.1913 74.7062L56.6919 78.2075L58.1062 76.7934L54.6056 73.2922L53.1913 74.7062ZM56.6919 78.2076C57.5192 79.0349 57.8031 79.8771 57.7975 80.61C57.7918 81.3614 57.4807 82.0827 56.9731 82.6387C56.4632 83.1972 55.795 83.5456 55.1288 83.6061C54.4895 83.6643 53.7788 83.466 53.1062 82.7934L51.6919 84.2076C52.7693 85.285 54.0586 85.7117 55.3099 85.5979C56.5344 85.4866 57.6474 84.8663 58.45 83.9872C59.2549 83.1057 59.7876 81.9208 59.7975 80.6253C59.8075 79.3113 59.2789 77.9661 58.1062 76.7934L56.6919 78.2076ZM53.1064 82.7936L52.1058 81.7923L50.6911 83.2061L51.6917 84.2074L53.1064 82.7936Z" fill="currentColor"/>
<rect x="45.3984" y="75.9992" width="6" height="10" rx="3" stroke="currentColor" stroke-width="2"/>
<rect x="39.3984" y="72.9992" width="6" height="10" rx="3" stroke="currentColor" stroke-width="2"/>
<rect x="33.3984" y="68.9992" width="6" height="10" rx="3" stroke="currentColor" stroke-width="2"/>
<rect x="27.3992" y="64.9992" width="6" height="10" rx="3" stroke="currentColor" stroke-width="2"/>
<path d="M19.4008 66L26.8992 69.4992" stroke="currentColor" stroke-width="2"/>
<path d="M31.8992 42.9973L45.3954 42.9973" stroke="currentColor" stroke-width="2"/>
<path d="M81.3992 67.9992L91.5008 63.9992" stroke="currentColor" stroke-width="2"/>
<path d="M43.3962 46.4987L42.4899 46.076L42.4899 46.076L43.3962 46.4987ZM47.8965 51.5002L47.6825 50.5233L47.8965 51.5002ZM60.8966 46.9998C61.4489 46.9998 61.8966 46.5521 61.8966 45.9998C61.8966 45.4475 61.4489 44.9998 60.8966 44.9998L60.8966 46.9998ZM55.4342 45.9998L55.4342 46.9998L55.4342 45.9998ZM74.1052 46.8963L73.5001 47.6925L74.1052 46.8963ZM61.0527 37.9995L61.0527 38.9995L61.0527 37.9995ZM63.4714 38.8149L64.0765 38.0187L63.4714 38.8149ZM50.3969 38.9994C51.5622 39.0001 58.1697 38.9997 61.0527 38.9995L61.0526 36.9995C58.169 36.9997 51.5625 37.0001 50.398 36.9994L50.3969 38.9994ZM50.398 36.9994C49.3325 36.9989 48.2051 37.3941 46.9211 38.7486C45.6832 40.0544 44.2531 42.2964 42.4899 46.076L44.3024 46.9215C46.0376 43.2019 47.3589 41.1938 48.3725 40.1245C49.3399 39.104 49.9639 38.9992 50.3969 38.9994L50.398 36.9994ZM48.1105 52.477C49.518 52.1687 50.8649 51.2069 51.9391 50.2469C53.0381 49.2647 53.9718 48.1738 54.5514 47.4475L52.9882 46.1999C52.4444 46.8814 51.5892 47.8773 50.6063 48.7557C49.5986 49.6563 48.5706 50.3288 47.6825 50.5233L48.1105 52.477ZM55.4342 46.9998L60.8966 46.9998L60.8966 44.9998L55.4342 44.9998L55.4342 46.9998ZM42.4899 46.076C41.4464 48.3128 41.3768 50.3463 42.7341 51.6337C43.9859 52.821 46.045 52.9295 48.1105 52.477L47.6825 50.5233C45.7869 50.9386 44.611 50.6574 44.1105 50.1827C43.7155 49.808 43.3762 48.907 44.3024 46.9215L42.4899 46.076ZM62.8663 39.611L73.5001 47.6925L74.7102 46.1002L64.0765 38.0187L62.8663 39.611ZM76.1286 48.1917L82.2711 46.4618L81.7289 44.5367L75.5864 46.2666L76.1286 48.1917ZM54.5514 47.4475C54.7826 47.1578 55.1113 46.9998 55.4342 46.9998L55.4342 44.9998C54.4561 44.9998 53.5687 45.4726 52.9882 46.1999L54.5514 47.4475ZM73.5001 47.6925C74.2494 48.262 75.2226 48.4468 76.1286 48.1917L75.5864 46.2666C75.2844 46.3516 74.96 46.29 74.7102 46.1002L73.5001 47.6925ZM61.0527 38.9995C61.708 38.9995 62.3439 39.214 62.8663 39.611L64.0765 38.0187C63.2068 37.3577 62.146 36.9995 61.0526 36.9995L61.0527 38.9995Z" fill="currentColor"/>
<path d="M65.0569 39.0596C64.5377 39.248 64.2695 39.8215 64.4579 40.3407C64.6463 40.8599 65.2198 41.1281 65.739 40.9397L65.0569 39.0596ZM65.3979 39.9997C65.739 40.9397 65.7389 40.9397 65.7389 40.9397C65.7389 40.9397 65.7389 40.9397 65.739 40.9397C65.7391 40.9397 65.7393 40.9396 65.7395 40.9395C65.7401 40.9393 65.7411 40.9389 65.7424 40.9385C65.7451 40.9375 65.7494 40.936 65.7551 40.9339C65.7666 40.9298 65.7841 40.9235 65.8073 40.9152C65.8536 40.8987 65.9226 40.8743 66.0118 40.8431C66.1902 40.7808 66.449 40.6917 66.7678 40.5858C67.4062 40.3736 68.2812 40.095 69.2307 39.828C70.1828 39.5602 71.1951 39.3083 72.1114 39.1453C73.0543 38.9777 73.7975 38.9231 74.2564 38.9886L74.5388 37.0087C73.7473 36.8957 72.7403 37.0021 71.7613 37.1762C70.7557 37.355 69.6744 37.6256 68.6892 37.9027C67.7014 38.1805 66.7954 38.4691 66.1371 38.6879C65.8075 38.7974 65.5391 38.8897 65.3523 38.955C65.2589 38.9876 65.1859 39.0135 65.1358 39.0313C65.1108 39.0402 65.0915 39.0472 65.0782 39.0519C65.0716 39.0543 65.0664 39.0562 65.0629 39.0574C65.0611 39.0581 65.0597 39.0586 65.0587 39.059C65.0582 39.0591 65.0578 39.0593 65.0575 39.0594C65.0573 39.0595 65.0572 39.0595 65.0571 39.0595C65.057 39.0596 65.0569 39.0596 65.3979 39.9997ZM74.2564 38.9886C74.5603 39.032 74.6557 39.1501 74.7123 39.2829C74.7962 39.4803 74.8372 39.8611 74.6826 40.4354C74.3771 41.5705 73.4098 43.048 71.8167 44.1859L72.9792 45.8134C74.8866 44.4509 76.1695 42.6062 76.6139 40.9552C76.8343 40.1363 76.8751 39.258 76.5526 38.5C76.2027 37.6774 75.4853 37.1437 74.5388 37.0087L74.2564 38.9886Z" fill="currentColor"/>
<path d="M32.5615 39.0104L21.3992 32.4992L3.40002 65.4996L14.5111 71.981C14.9978 72.265 15.623 72.0908 15.8928 71.5961L32.9355 40.353C33.1946 39.878 33.0289 39.283 32.5615 39.0104Z" stroke="currentColor" stroke-width="2"/>
<path d="M79.6386 39.1108L90.8008 32.5996L108.8 65.6L97.6889 72.0814C97.2022 72.3654 96.577 72.1913 96.3072 71.6965L79.2645 40.4534C79.0054 39.9784 79.1712 39.3834 79.6386 39.1108Z" stroke="currentColor" stroke-width="2"/>
<line x1="54" y1="7" x2="54" y2="19" stroke="currentColor" stroke-width="2" stroke-linecap="round"/>
<line x1="38.2749" y1="11.6121" x2="41.9203" y2="21.9905" stroke="currentColor" stroke-width="2" stroke-linecap="round"/>
<line x1="1" y1="-1" x2="12" y2="-1" transform="matrix(-0.331405 0.943489 0.943489 0.331405 70.0781 11)" stroke="currentColor" stroke-width="2" stroke-linecap="round"/>
</svg>
