<svg  viewBox="0 0 16 16" fill="none" xmlns="http://www.w3.org/2000/svg">
<path fill-rule="evenodd" clip-rule="evenodd" d="M8 14C11.3137 14 14 11.3137 14 8C14 4.68629 11.3137 2 8 2C4.68629 2 2 4.68629 2 8C2 11.3137 4.68629 14 8 14ZM8 16C12.4183 16 16 12.4183 16 8C16 3.58172 12.4183 0 8 0C3.58172 0 0 3.58172 0 8C0 12.4183 3.58172 16 8 16Z" fill="currentColor"/>
<path d="M7 10.5H9V12.5H7V10.5Z" fill="currentColor"/>
<path fill-rule="evenodd" clip-rule="evenodd" d="M7.00058 6.49768C7.0001 6.50145 7 6.50228 7 6.5H5C5 6.0256 5.19976 5.32488 5.62377 4.73126C6.08103 4.09109 6.85964 3.5 8 3.5C8.99048 3.5 9.79491 3.84184 10.3307 4.48482C10.8398 5.09571 11 5.85143 11 6.5C11 7.18175 10.8244 7.73853 10.4962 8.18973C10.1873 8.61454 9.79284 8.87123 9.53 9.0355C9.48534 9.06341 9.44496 9.08854 9.40831 9.11134C9.18514 9.2502 9.10041 9.30293 9.03389 9.37222C9.03226 9.37391 9.03057 9.37546 9.02884 9.37704C9.01541 9.38935 9 9.40346 9 9.5H7C7 8.85894 7.23038 8.36292 7.59111 7.98716C7.8498 7.71769 8.18431 7.51391 8.38784 7.38993C8.41842 7.3713 8.44604 7.35448 8.47 7.3395C8.70716 7.19127 8.81271 7.10421 8.87876 7.01339C8.92562 6.94897 9 6.81825 9 6.5C9 6.14857 8.9102 5.90429 8.79428 5.76518C8.70509 5.65816 8.50952 5.5 8 5.5C7.64036 5.5 7.41897 5.65891 7.25123 5.89374C7.16111 6.01991 7.09382 6.16206 7.05025 6.29279C7.01179 6.40816 7.00265 6.48115 7.00058 6.49768Z" fill="currentColor"/>
</svg>
