<svg viewBox="0 0 80 80" fill="none" xmlns="http://www.w3.org/2000/svg">
<path d="M51.6667 40.505V35.164C48.9367 34.191 47.217 33.9203 46.3467 31.825C45.4763 29.725 46.51 28.297 47.7467 25.7L43.9713 21.9223C41.393 23.1473 39.951 24.195 37.844 23.3223C35.744 22.4497 35.471 20.716 34.505 18H29.1617C28.2003 20.702 27.925 22.4497 25.8227 23.32H25.8203C23.7203 24.1927 22.297 23.1567 19.6953 21.92L15.9223 25.6977C17.152 28.2877 18.1927 29.7203 17.3223 31.8227C16.4473 33.925 14.702 34.2003 12 35.1617V40.5027C14.695 41.464 16.4497 41.7417 17.32 43.8417C18.1973 45.9603 17.131 47.421 15.92 49.9667L19.6953 53.7443C22.2783 52.5193 23.718 51.4717 25.8203 52.3443H25.8227C27.9227 53.2147 28.198 54.953 29.1617 57.6643H34.5027C35.464 54.9623 35.7393 53.2193 37.8557 52.3397H37.858C39.944 51.4717 41.3603 52.5053 43.969 53.7443L47.7443 49.9667C46.5193 47.3837 45.4717 45.9463 46.342 43.8417C47.2147 41.744 48.9693 41.464 51.6667 40.505ZM31.8333 44.446C28.184 44.446 25.223 41.485 25.223 37.8333C25.223 34.1817 28.184 31.2207 31.8333 31.2207C35.4827 31.2207 38.4437 34.1817 38.4437 37.8333C38.4437 41.485 35.4827 44.446 31.8333 44.446ZM68 54.2577V51.7447C66.7167 51.2873 65.907 51.159 65.4963 50.1743C65.0857 49.185 65.5733 48.5153 66.1543 47.2903L64.3763 45.5123C63.163 46.091 62.484 46.581 61.4947 46.1727C60.5053 45.7643 60.377 44.9477 59.922 43.669H57.4113C56.9587 44.9407 56.828 45.762 55.8387 46.1727C54.8493 46.5833 54.1797 46.0957 52.957 45.5123L51.179 47.2903C51.7577 48.5107 52.2477 49.185 51.837 50.1743C51.4263 51.1637 50.605 51.292 49.3333 51.7447V54.2577C50.6027 54.708 51.4263 54.841 51.837 55.828C52.25 56.8243 51.7483 57.5127 51.179 58.712L52.957 60.49C54.1727 59.9113 54.8517 59.4213 55.8387 59.8297C56.828 60.238 56.9563 61.057 57.4113 62.3333H59.922C60.3747 61.0617 60.5053 60.2403 61.4993 59.8273H61.5017C62.484 59.419 63.149 59.9067 64.3763 60.49L66.1543 58.712C65.578 57.4963 65.0857 56.8173 65.4963 55.8303C65.907 54.8433 66.7307 54.708 68 54.2577ZM58.6667 56.1103C56.9493 56.1103 55.5563 54.7173 55.5563 53C55.5563 51.2827 56.9493 49.8897 58.6667 49.8897C60.384 49.8897 61.777 51.2827 61.777 53C61.777 54.7173 60.384 56.1103 58.6667 56.1103Z" fill="currentColor"/>
</svg>
