<svg viewBox="0 0 20 20" fill="none" xmlns="http://www.w3.org/2000/svg">
<path d="M10 -3.87016e-05C7.28418 -3.87016e-05 6.94363 0.0114735 5.87702 0.0601397C4.81264 0.108687 4.0857 0.277748 3.44961 0.524929C2.79202 0.780487 2.23436 1.12242 1.67841 1.67835C1.12247 2.23428 0.780537 2.792 0.524984 3.44959C0.277789 4.08566 0.108743 4.8126 0.0601631 5.87699C0.0115054 6.94359 0 7.28414 0 10C0 12.7158 0.0115054 13.0564 0.0601631 14.123C0.108743 15.1874 0.277789 15.9143 0.524984 16.5504C0.780537 17.208 1.12247 17.7656 1.67841 18.3216C2.23436 18.8775 2.79202 19.2195 3.44961 19.475C4.0857 19.7222 4.81264 19.8913 5.87702 19.9398C6.94363 19.9885 7.28418 20 10 20C12.7159 20 13.0564 19.9885 14.123 19.9398C15.1874 19.8913 15.9143 19.7222 16.5504 19.475C17.208 19.2195 17.7657 18.8775 18.3216 18.3216C18.8776 17.7656 19.2195 17.208 19.4751 16.5504C19.7223 15.9143 19.8913 15.1874 19.9399 14.123C19.9885 13.0564 20 12.7158 20 10C20 7.28414 19.9885 6.94359 19.9399 5.87699C19.8913 4.8126 19.7223 4.08566 19.4751 3.44959C19.2195 2.792 18.8776 2.23428 18.3216 1.67835C17.7657 1.12242 17.208 0.780487 16.5504 0.524929C15.9143 0.277748 15.1874 0.108687 14.123 0.0601397C13.0564 0.0114735 12.7159 -3.87016e-05 10 -3.87016e-05ZM10 1.80176C12.6701 1.80176 12.9864 1.81197 14.0409 1.86008C15.0159 1.90453 15.5454 2.06744 15.8977 2.20439C16.3645 2.3858 16.6976 2.60249 17.0476 2.95241C17.3975 3.30236 17.6142 3.63548 17.7956 4.10226C17.9326 4.45463 18.0955 4.98412 18.1399 5.95912C18.188 7.01358 18.1982 7.32987 18.1982 10C18.1982 12.6701 18.188 12.9864 18.1399 14.0408C18.0955 15.0158 17.9326 15.5453 17.7956 15.8977C17.6142 16.3645 17.3975 16.6976 17.0476 17.0475C16.6976 17.3975 16.3645 17.6142 15.8977 17.7956C15.5454 17.9325 15.0159 18.0954 14.0409 18.1399C12.9866 18.188 12.6703 18.1982 10 18.1982C7.32971 18.1982 7.0135 18.188 5.95915 18.1399C4.98416 18.0954 4.45467 17.9325 4.10229 17.7956C3.63551 17.6142 3.3024 17.3975 2.95248 17.0475C2.60256 16.6976 2.38583 16.3645 2.20443 15.8977C2.06748 15.5453 1.90459 15.0158 1.86011 14.0408C1.81199 12.9864 1.8018 12.6701 1.8018 10C1.8018 7.32987 1.81199 7.01358 1.86011 5.95912C1.90459 4.98412 2.06748 4.45463 2.20443 4.10226C2.38583 3.63548 2.60254 3.30236 2.95246 2.95245C3.3024 2.60249 3.63551 2.3858 4.10229 2.20439C4.45467 2.06744 4.98416 1.90453 5.95915 1.86008C7.01361 1.81197 7.32991 1.80176 10 1.80176Z" fill="currentColor"/>
<path d="M10 13.3333C8.15905 13.3333 6.66667 11.8409 6.66667 10C6.66667 8.15901 8.15905 6.66664 10 6.66664C11.841 6.66664 13.3334 8.15901 13.3334 10C13.3334 11.8409 11.841 13.3333 10 13.3333V13.3333ZM10 4.86483C7.16393 4.86483 4.86487 7.1639 4.86487 10C4.86487 12.8361 7.16393 15.1351 10 15.1351C12.8361 15.1351 15.1352 12.8361 15.1352 10C15.1352 7.1639 12.8361 4.86483 10 4.86483Z" fill="currentColor"/>
<path d="M16.5381 4.66195C16.5381 5.3247 16.0009 5.86194 15.3381 5.86194C14.6754 5.86194 14.1381 5.3247 14.1381 4.66195C14.1381 3.9992 14.6754 3.46192 15.3381 3.46192C16.0009 3.46192 16.5381 3.9992 16.5381 4.66195" fill="currentColor"/>
</svg>