<svg viewBox="0 0 16 16" fill="none" xmlns="http://www.w3.org/2000/svg">
<path d="M8.30067 11.558L6.66667 13.3333H5.33333V14.6667H4V16H0V15.138L4.70667 10.4313C4.564 10.258 4.43133 10.076 4.30733 9.888L0 14.1953V12.6667L4.57667 8.034C5.29667 9.65 6.64 10.9247 8.30067 11.558ZM16 5.33333C16 8.27867 13.612 10.6667 10.6667 10.6667C7.72133 10.6667 5.33333 8.27867 5.33333 5.33333C5.33333 2.388 7.72133 0 10.6667 0C13.612 0 16 2.388 16 5.33333ZM14 3.33333C14 2.59733 13.4027 2 12.6667 2C11.9307 2 11.3333 2.59733 11.3333 3.33333C11.3333 4.06933 11.9307 4.66667 12.6667 4.66667C13.4027 4.66667 14 4.06933 14 3.33333Z" fill="#685946"/>
</svg>
