<svg enable-background="new 0 0 22 21" viewBox="0 0 22 21" xmlns="http://www.w3.org/2000/svg"><path d="m5.075 2.177c0 1.242-.917 2.249-2.426 2.249-1.418 0-2.333-1.006-2.333-2.249 0-1.27.945-2.247 2.394-2.247 1.448.001 2.335.978 2.365 2.247zm-4.642 18.479v-14.458h4.495v14.458z" fill="currentColor"/><path d="m7.617 10.811c0-1.802-.059-3.311-.118-4.613h3.9l.209 2.011h.088c.592-.945 2.039-2.335 4.464-2.335 2.956 0 5.176 1.981 5.176 6.239v8.543h-4.494v-8.014c0-1.861-.653-3.134-2.277-3.134-1.241 0-1.979.859-2.309 1.687-.116.295-.145.711-.145 1.123v8.338h-4.494z" fill="currentColor"/></svg>