<svg viewBox="0 0 16 16" fill="none" xmlns="http://www.w3.org/2000/svg">
<path fill-rule="evenodd" clip-rule="evenodd" d="M5.5 6C5.5 4.49718 5.63796 3.493 5.99332 2.87116C6.15298 2.59176 6.35587 2.39328 6.63482 2.2538C6.92691 2.10775 7.35667 2 8 2C8.64333 2 9.07309 2.10775 9.36518 2.2538C9.64413 2.39328 9.84702 2.59176 10.0067 2.87116C10.362 3.493 10.5 4.49718 10.5 6H5.5ZM3.5 6H2V16H14V6H12.5C12.5 4.50282 12.3878 3.007 11.7431 1.87884C11.4028 1.28324 10.9182 0.794225 10.2596 0.464952C9.61424 0.142253 8.85656 0 8 0C7.14344 0 6.38576 0.142253 5.74038 0.464952C5.08185 0.794225 4.59722 1.28324 4.25686 1.87884C3.61216 3.007 3.5 4.50282 3.5 6ZM12 14V8H4V14H12ZM7 10H9V12H7V10Z" fill="currentColor"/>
</svg>
