<svg viewBox="0 0 16 16" fill="none" xmlns="http://www.w3.org/2000/svg">
<path fill-rule="evenodd" clip-rule="evenodd" d="M8.44721 1.10558C8.786 1.27497 9 1.62123 9 2.00001V14C9 14.3788 8.786 14.725 8.44721 14.8944C8.10843 15.0638 7.70302 15.0273 7.4 14.8L3.66667 12H0V4.00001H3.66667L7.4 1.20001C7.70302 0.972742 8.10843 0.936187 8.44721 1.10558ZM7 4.00001L4.33333 6.00001H2V10H4.33333L7 12V4.00001ZM12.2924 3.70662C12.2926 3.70686 12.2929 3.70711 13 3.00001C13.7071 2.2929 13.7074 2.29317 13.7076 2.29344L13.7095 2.29535L13.7127 2.29856L13.7212 2.30723L13.7466 2.33354C13.7671 2.35504 13.7946 2.38445 13.828 2.42152C13.895 2.4956 13.9861 2.60064 14.0934 2.73469C14.3074 3.00216 14.5882 3.38876 14.8682 3.87887C15.426 4.85494 16 6.27623 16 8.00001C16 9.72378 15.426 11.1451 14.8682 12.1211C14.5882 12.6113 14.3074 12.9978 14.0934 13.2653C13.9861 13.3994 13.895 13.5044 13.828 13.5785C13.7946 13.6156 13.7671 13.645 13.7466 13.6665L13.7212 13.6928L13.7127 13.7015L13.7095 13.7047L13.7082 13.706C13.708 13.7063 13.7071 13.7071 13 13C12.2929 12.2929 12.2926 12.2932 12.2924 12.2934L12.2902 12.2956L12.2983 12.2872C12.3071 12.2779 12.3226 12.2614 12.3438 12.2379C12.3863 12.1909 12.4514 12.1163 12.5316 12.0159C12.6926 11.8147 12.9118 11.5138 13.1318 11.1289C13.574 10.3549 14 9.27623 14 8.00001C14 6.72378 13.574 5.64508 13.1318 4.87114C12.9118 4.48626 12.6926 4.18535 12.5316 3.98408C12.4514 3.88375 12.3863 3.80909 12.3438 3.76209C12.3226 3.73861 12.3071 3.72212 12.2983 3.71285L12.2902 3.70444L12.2924 3.70662ZM10.2922 5.70643C10.2926 5.70677 10.2929 5.70711 11 5.00001C11.7071 4.2929 11.7075 4.29325 11.7078 4.2936L11.7085 4.29433L11.7101 4.29586L11.7134 4.29922L11.7211 4.30714L11.7408 4.32778C11.7557 4.34368 11.7741 4.36388 11.7955 4.38838C11.8384 4.43735 11.8934 4.50371 11.9563 4.58751C12.0818 4.75497 12.2397 4.99328 12.3944 5.30279C12.7056 5.92508 13 6.82724 13 8.00001C13 9.17277 12.7056 10.0749 12.3944 10.6972C12.2397 11.0067 12.0818 11.245 11.9563 11.4125C11.8934 11.4963 11.8384 11.5627 11.7955 11.6116C11.7741 11.6361 11.7557 11.6563 11.7408 11.6722L11.7211 11.6929L11.7134 11.7008L11.7101 11.7042L11.7085 11.7057L11.7078 11.7064C11.7075 11.7068 11.7071 11.7071 11 11C10.2929 10.2929 10.2926 10.2932 10.2922 10.2936L10.2903 10.2955L10.2881 10.2978L10.2846 10.3013L10.2817 10.3043C10.2814 10.3046 10.2844 10.3022 10.2903 10.2955C10.3021 10.282 10.3253 10.2537 10.3562 10.2125C10.4182 10.13 10.5103 9.99329 10.6056 9.80279C10.7944 9.42508 11 8.82724 11 8.00001C11 7.17277 10.7944 6.57493 10.6056 6.19722C10.5103 6.00673 10.4182 5.87004 10.3562 5.78751C10.3253 5.74631 10.3022 5.71891 10.2904 5.70539C10.285 5.69923 10.282 5.69599 10.2817 5.69568L10.2846 5.69873L10.2881 5.70226L10.2904 5.70539L10.2922 5.70643Z" fill="currentColor"/>
</svg>
