<svg viewBox="0 0 80 80" fill="none" xmlns="http://www.w3.org/2000/svg">
<path fill-rule="evenodd" clip-rule="evenodd" d="M55.7263 48.0313L41.7987 61.9613L19.1163 39.4447L30.335 68L59.1283 56.688L55.7263 48.0313ZM17 12H38.8213L63.6667 36.7917L41.7917 58.6667L17 34.057V12ZM29.5953 20.631C29.5953 18.4423 27.8197 16.6667 25.631 16.6667C23.4423 16.6667 21.6667 18.4423 21.6667 20.631C21.6667 22.8197 23.4423 24.5953 25.631 24.5953C27.8197 24.5953 29.5953 22.8197 29.5953 20.631ZM42.8186 46.007C42.7157 46.1005 42.6034 46.046 42.5768 45.9134L38.7135 28.0567C38.6729 27.8743 38.6947 27.7605 38.8319 27.6357L39.9466 26.6219C40.0495 26.5283 40.1618 26.5828 40.1883 26.7154L44.0517 44.5721C44.0923 44.7545 44.0705 44.8684 43.9504 44.9775L42.8186 46.007ZM38.9617 36.3227C39.436 37.3955 39.1291 38.6773 38.1173 39.5975C37.0883 40.5334 35.8003 40.7021 34.7773 40.1285C34.3297 39.8775 34.1722 39.7388 33.096 38.5555C32.0198 37.3722 31.8965 37.2022 31.689 36.7329C31.2147 35.6602 31.5045 34.3939 32.5335 33.4581C33.5453 32.5379 34.8504 32.3536 35.8735 32.9272C36.321 33.1781 36.4786 33.3169 37.5548 34.5002C38.631 35.6835 38.7542 35.8534 38.9617 36.3227ZM35.7874 38.5518C36.2038 38.7684 36.6341 38.6903 36.9943 38.3628C37.3373 38.0509 37.4728 37.6142 37.2794 37.1948C37.206 37.0108 37.0984 36.858 36.1314 35.7948C35.1644 34.7315 35.0224 34.6099 34.8306 34.5024C34.447 34.2872 33.9994 34.3809 33.6565 34.6929C33.2963 35.0204 33.1779 35.4414 33.3386 35.8593C33.4275 36.0604 33.5352 36.2132 34.5022 37.2765C35.4692 38.3398 35.6112 38.4613 35.7874 38.5518ZM50.2302 39.2034C49.2012 40.1393 47.8961 40.3236 46.873 39.75C46.4426 39.4834 46.2679 39.3603 45.1917 38.177C44.1155 36.9937 44.0094 36.8081 43.7848 36.3544C43.3105 35.2817 43.6174 33.9998 44.6463 33.064C45.6582 32.1438 46.9633 31.9595 47.9863 32.5331C48.4339 32.784 48.5914 32.9228 49.6677 34.1061C50.7439 35.2894 50.8671 35.4593 51.0746 35.9286C51.5489 37.0014 51.242 38.2832 50.2302 39.2034ZM46.6151 36.8824C47.5821 37.9456 47.724 38.0672 47.9003 38.1576C48.3167 38.3743 48.747 38.2962 49.1072 37.9687C49.4501 37.6568 49.5857 37.2201 49.3923 36.8007C49.3189 36.6167 49.2113 36.4639 48.2443 35.4007C47.2772 34.3374 47.1353 34.2158 46.9435 34.1083C46.5598 33.8931 46.1123 33.9868 45.7693 34.2988C45.4092 34.6263 45.2908 35.0473 45.4515 35.4652C45.5404 35.6663 45.6481 35.8191 46.6151 36.8824Z" fill="currentColor"/>
</svg>
