<svg viewBox="0 0 65 64" fill="none" xmlns="http://www.w3.org/2000/svg">
<path d="M20.1823 51.4118C20.1823 51.7647 20.4176 52 20.7706 52H26.1823C26.5353 52 26.7706 51.7647 26.7706 51.4118V12.5882C26.7706 12.2353 26.5353 12 26.1823 12H21.1823C20.7118 12 20.4176 12.1176 20.1235 12.3529L13.7118 17C13.4176 17.2353 13.3 17.4706 13.3 17.8235V23.8235C13.3 24.2941 13.5941 24.4118 13.947 24.1765L20.0647 19.8824H20.1823V51.4118Z" fill="currentColor"/>
<path d="M20.1823 51.4118C20.1823 51.7647 20.4176 52 20.7706 52H26.1823C26.5353 52 26.7706 51.7647 26.7706 51.4118V12.5882C26.7706 12.2353 26.5353 12 26.1823 12H21.1823C20.7118 12 20.4176 12.1176 20.1235 12.3529L13.7118 17C13.4176 17.2353 13.3 17.4706 13.3 17.8235V23.8235C13.3 24.2941 13.5941 24.4118 13.947 24.1765L20.0647 19.8824H20.1823V51.4118Z" stroke="currentColor"/>
<path d="M37.1103 51.5852C37.0358 51.7094 37.0854 51.8335 37.2344 51.8335H38.8735C39.0473 51.8335 39.1467 51.759 39.246 51.5852L49.0555 34.6482C49.13 34.5241 49.0804 34.3999 48.9314 34.3999H47.3171C47.1185 34.3999 47.0191 34.4744 46.9198 34.6482L37.1103 51.5852ZM38.1285 43.3651C39.5937 43.3651 40.7609 42.5704 41.1583 41.3783C41.3321 40.8568 41.3569 40.6333 41.3569 38.9197C41.3569 37.2062 41.3321 36.9827 41.1583 36.4611C40.7609 35.2691 39.5937 34.4744 38.1285 34.4744C36.6384 34.4744 35.496 35.2691 35.0987 36.4611C34.9249 36.9827 34.9 37.2062 34.9 38.9197C34.9 40.6333 34.9249 40.8568 35.0987 41.3783C35.496 42.5704 36.6384 43.3651 38.1285 43.3651ZM38.1285 41.577C37.607 41.577 37.2096 41.3287 37.0358 40.8568C36.9613 40.6581 36.9364 40.4595 36.9364 38.9197C36.9364 37.38 36.9613 37.1813 37.0358 36.9578C37.2096 36.5108 37.607 36.2625 38.1285 36.2625C38.6252 36.2625 39.0473 36.5108 39.1963 36.9578C39.2709 37.1813 39.2957 37.38 39.2957 38.9197C39.2957 40.4595 39.2709 40.6581 39.1963 40.8568C39.0473 41.3287 38.6252 41.577 38.1285 41.577ZM44.9579 49.7971C45.3552 50.9892 46.5224 51.7839 48.0125 51.7839C49.4777 51.7839 50.6449 50.9892 51.0423 49.7971C51.2161 49.2756 51.241 49.0521 51.241 47.3385C51.241 45.625 51.2161 45.4015 51.0423 44.88C50.6449 43.6879 49.4777 42.8932 48.0125 42.8932C46.5224 42.8932 45.3552 43.6879 44.9579 44.88C44.8089 45.4015 44.7592 45.625 44.7592 47.3385C44.7592 49.0521 44.8089 49.2756 44.9579 49.7971ZM46.9198 49.2756C46.8453 49.0769 46.8205 48.8783 46.8205 47.3385C46.8205 45.7988 46.8453 45.6001 46.9198 45.3766C47.0936 44.9296 47.491 44.6813 48.0125 44.6813C48.5092 44.6813 48.9314 44.9296 49.0804 45.3766C49.1549 45.6001 49.1797 45.7988 49.1797 47.3385C49.1797 48.8783 49.1549 49.0769 49.0804 49.2756C48.9314 49.7475 48.5092 49.9958 48.0125 49.9958C47.491 49.9958 47.0936 49.7475 46.9198 49.2756Z" fill="currentColor"/>
</svg>
