<svg viewBox="0 0 16 16" fill="none" xmlns="http://www.w3.org/2000/svg">
<path d="M6.06898 12C6.10762 12 6.13338 11.9765 6.13338 11.9412V10.7C6.13338 10.6765 6.14626 10.6647 6.17202 10.6647H6.81599C7.87853 10.6647 8.43878 10.0941 8.43878 9.32941C8.43878 8.55294 7.88497 8 6.81599 8H5.0644C5.02576 8 5 8.02353 5 8.05882V11.9412C5 11.9765 5.02576 12 5.0644 12H6.06898ZM6.75159 9.78823H6.17202C6.14626 9.78823 6.13338 9.77647 6.13338 9.75294V8.91176C6.13338 8.88824 6.14626 8.87647 6.17202 8.87647H6.75159C7.10577 8.87647 7.3054 9.05294 7.3054 9.32941C7.3054 9.60588 7.10577 9.78823 6.75159 9.78823Z" fill="currentColor"/>
<path d="M8.94304 11.9412C8.94304 11.9765 8.96879 12 9.00743 12H10.7011C11.4738 12 12.0405 11.7059 12.2595 11.0882C12.3496 10.8294 12.3883 10.6 12.3883 10C12.3883 9.39412 12.3496 9.17059 12.2595 8.91176C12.0405 8.29412 11.4738 8 10.7011 8H9.00743C8.96879 8 8.94304 8.02353 8.94304 8.05882V11.9412ZM10.0764 11.0471V8.95294C10.0764 8.92941 10.0893 8.91765 10.1151 8.91765H10.4564C10.8556 8.91765 11.0746 9.01765 11.1776 9.3C11.2162 9.41765 11.242 9.55294 11.242 10C11.242 10.4471 11.2162 10.5824 11.1776 10.7C11.0746 10.9824 10.8556 11.0824 10.4564 11.0824H10.1151C10.0893 11.0824 10.0764 11.0706 10.0764 11.0471Z" fill="currentColor"/>
<path d="M13.0056 11.9412C13.0056 11.9765 13.0313 12 13.07 12H14.0745C14.1132 12 14.1389 11.9765 14.1389 11.9412V10.5C14.1389 10.4765 14.1518 10.4647 14.1776 10.4647H15.6201C15.6587 10.4647 15.6845 10.4412 15.6845 10.4059V9.66471C15.6845 9.62941 15.6587 9.60588 15.6201 9.60588H14.1776C14.1518 9.60588 14.1389 9.59412 14.1389 9.57059V8.91176C14.1389 8.88824 14.1518 8.87647 14.1776 8.87647H15.9356C15.9742 8.87647 16 8.85294 16 8.81765V8.05882C16 8.02353 15.9742 8 15.9356 8H13.07C13.0313 8 13.0056 8.02353 13.0056 8.05882V11.9412Z" fill="currentColor"/>
<path d="M13.5 6V5M13.5 5L10 1M13.5 5H10V1M10 1H2L2 15L14 15V14" stroke="currentColor" stroke-width="2"/>
</svg>
