<svg viewBox="0 0 16 16" fill="none" xmlns="http://www.w3.org/2000/svg">
<g clip-path="url(#clip0_1295_150)">
<path d="M13.9454 13.423L11.9972 10.6953C11.7111 10.2949 11.1763 10.1621 10.7362 10.3822L10.3287 10.5859C9.86137 10.8196 9.29289 10.654 9.02404 10.206L7.19646 7.16027C6.82091 6.53441 7.05768 5.72131 7.71051 5.3949C8.13943 5.18045 8.30013 4.6497 8.0622 4.23334L6.53396 1.55899C6.51361 1.52339 6.4757 1.50356 6.4353 1.5106C5.95717 1.59394 3.0006 2.20216 3.00024 4.50001C2.99977 7.50001 6.5006 13.5 9.00054 14.5C11.2473 15.3987 13.4941 13.8743 13.9262 13.5564C13.9689 13.5249 13.9763 13.4662 13.9454 13.423Z" stroke="currentColor" stroke-width="2"/>
</g>
<defs>
<clipPath id="clip0_1295_150">
<rect width="16" height="16" fill="white"/>
</clipPath>
</defs>
</svg>
