<svg viewBox="0 0 80 80" fill="none" xmlns="http://www.w3.org/2000/svg">
<path d="M46.1333 47.7001C45.15 49.4401 44.41 51.3334 43.9367 53.3334H13.3333V51.9434C13.32 48.2368 13.48 46.1201 17.7467 45.1334C22.42 44.0534 27.0367 43.0901 24.8167 38.9967C18.2433 26.8734 22.9433 20.0001 30 20.0001C36.9233 20.0001 41.7367 26.6168 35.1867 38.9967C33.03 43.0634 37.48 44.0301 42.2567 45.1334C44.4967 45.6501 45.59 46.4901 46.1333 47.7001ZM43.4167 63.7502H2.5V9.37518H77.5V39.5834C78.125 40.0002 79.375 41.2502 80 42.7201V6.66675H0V66.2502H45C44.375 65.2086 43.75 65.0002 43.4167 63.7502ZM66.6667 30.0001H53.3333V32.9167H66.6667V30.0001ZM53.3333 22.9167H66.6667V20.0001H53.3333V22.9167ZM80 58.3334C80 66.6168 73.2733 73.3334 65 73.3334C56.72 73.3334 50 66.6168 50 58.3334C50 50.0501 56.72 43.3334 65 43.3334C73.2733 43.3334 80 50.0501 80 58.3334ZM73.3333 56.6667H66.6667V50.0001H63.3333V56.6667H56.6667V60.0001H63.3333V66.6667H66.6667V60.0001H73.3333V56.6667Z" fill="currentColor"/>
</svg>
