<svg viewBox="0 0 80 80" fill="none" xmlns="http://www.w3.org/2000/svg">
<path d="M41.4257 43.8803C42.037 43.444 42.73 43.241 43.4067 43.241C44.844 43.241 46.23 44.1557 46.685 45.677C46.104 45.2313 45.4227 45.012 44.7343 45.012C44.032 45.012 43.3273 45.2383 42.7137 45.677C41.4957 46.5497 40.9567 48.0313 41.428 49.436C39.5287 48.0803 39.517 45.2477 41.4257 43.8803ZM46.2627 62.1527C47.7817 62.6613 52.481 63.954 57.927 68L68 60.7947C65.3797 57.1337 66.096 54.567 63.492 50.927C62.3277 49.3053 61.301 48.3137 59.397 48.6473L58.851 48.7477L59.7703 50.0263C60.328 50.808 59.1473 51.62 58.606 50.8593L57.787 49.716C57.4977 49.31 56.9937 49.1187 56.5083 49.226L54.651 49.6437L55.7663 51.1977C56.3263 51.9817 55.1433 52.7867 54.602 52.0283L53.6407 50.6843C53.3397 50.2643 52.817 50.0777 52.3293 50.199L50.4417 50.6727L51.6177 52.3177C52.18 53.1017 50.9947 53.909 50.4533 53.1507L46.5847 47.7047C45.957 46.8273 44.7343 46.6243 43.8547 47.252C42.9773 47.882 42.772 49.1023 43.4043 49.982L49.5457 58.6153C47.651 57.9177 44.7413 57.6213 44.2047 59.5743C43.8803 60.7433 44.816 61.6697 46.2627 62.1527V62.1527ZM44.6667 19H19V30.6667H44.6667V19ZM28.3333 40H35.3333V35.3333H28.3333V40ZM26 35.3333H19V40H26V35.3333ZM26 42.3333H19V47H26V42.3333ZM19 54H26V49.3333H19V54ZM35.3333 42.3333H28.3333V47H35.3333V42.3333ZM40.714 56.3333H16.6667V16.6667H47V39.4167C50.4697 41.127 51.6667 45.3573 51.6667 45.3573V12H12V61H39.5823C39.2837 59.1287 39.6967 57.7823 40.714 56.3333V56.3333ZM37.6667 35.3333V40H38.8497C40.504 38.866 42.5107 38.341 44.6667 38.6747V35.3333H37.6667ZM35.3333 49.3333H28.3333V54H35.3333V49.3333Z" fill="currentColor"/>
</svg>
