<svg viewBox="0 0 65 64" fill="none" xmlns="http://www.w3.org/2000/svg">
<path fill-rule="evenodd" clip-rule="evenodd" d="M10.4529 20.1338L13.7033 26.3011C13.9337 26.7383 13.8663 27.2728 13.5345 27.6391L8.45951 33.2428C8.371 33.3405 8.26668 33.4227 8.15093 33.4858L5.27481 35.0546V42.2009L9.46799 43.7176C9.58629 43.7604 9.69697 43.8218 9.79579 43.8997L9.06793 44.8236C9.79579 43.8997 9.79579 43.8997 9.79579 43.8997L9.79992 43.903L9.80925 43.9104L9.84302 43.9372C9.87207 43.9604 9.91398 43.9941 9.96736 44.0374C10.0741 44.1239 10.2268 44.2491 10.4144 44.4066C10.789 44.7211 11.305 45.1664 11.872 45.6906C12.9847 46.7196 14.3738 48.1254 15.239 49.4755C16.1969 50.9704 16.9217 53.0352 17.3984 54.6457C17.63 55.4281 17.8108 56.1307 17.9367 56.6522H21.0062L22.0112 53.5535C22.1857 53.0154 22.7186 52.6777 23.2798 52.7498C28.3906 53.4058 31.2026 53.3779 36.1995 52.7494C36.7705 52.6776 37.3097 53.0295 37.4737 53.5812L38.3867 56.6522H41.5531C41.6527 56.2782 41.7884 55.8038 41.9665 55.2481C42.4229 53.8235 43.1603 51.8578 44.2885 49.6757C44.9189 48.4564 45.7791 47.5136 46.5905 46.6706C46.7099 46.5466 46.8278 46.4251 46.9443 46.305C47.6444 45.5836 48.2918 44.9164 48.8673 44.1047C50.1211 42.3364 51.0978 39.773 50.4237 34.6477C46.9361 25.6144 34.8742 19.5654 20.4279 24.2674C20.0209 24.3999 19.5742 24.3009 19.2613 24.0089C17.4733 22.3402 15.9692 21.3317 14.3777 20.7616C13.2225 20.3478 11.9688 20.1462 10.4529 20.1338ZM52.8406 35.0448C53.4006 40.1997 52.3792 43.2186 50.7863 45.4653C50.0973 46.4371 49.3111 47.2458 48.6148 47.962C48.5024 48.0776 48.3923 48.1908 48.2854 48.3019C47.491 49.1272 46.8403 49.8621 46.3781 50.756C45.3213 52.8002 44.6313 54.6408 44.2066 55.9659C43.9945 56.6279 43.8492 57.1595 43.7577 57.5215C43.712 57.7024 43.6798 57.8408 43.6594 57.9316C43.6492 57.9771 43.642 58.0106 43.6376 58.0316L43.633 58.0537L43.6324 58.0566C43.5233 58.6073 43.0401 59.0046 42.4786 59.0046H37.5093C36.9888 59.0046 36.5302 58.6625 36.3819 58.1636L35.5018 55.2034C31.2117 55.7008 28.3513 55.7205 23.9494 55.2024L22.9801 58.1913C22.8228 58.6762 22.371 59.0046 21.8612 59.0046H16.9977C16.4386 59.0046 15.9567 58.611 15.8451 58.0632L15.843 58.0526L15.835 58.0144C15.8277 57.9799 15.8165 57.9277 15.8016 57.8596C15.7716 57.7234 15.7266 57.5238 15.667 57.2751C15.5478 56.777 15.3713 56.0854 15.1427 55.3133C14.6765 53.7382 14.0268 51.9438 13.2584 50.7447C12.564 49.6611 11.3627 48.4236 10.2749 47.4178C9.74165 46.9247 9.2549 46.5046 8.90183 46.2082C8.72553 46.0602 8.58318 45.9435 8.48578 45.8646L8.48417 45.8633L3.69855 44.1323C3.23275 43.9638 2.92242 43.5216 2.92242 43.0262V34.3564C2.92242 33.9259 3.15753 33.5299 3.53539 33.3238L6.84962 31.516L11.2385 26.6699L7.49874 19.5739C7.31368 19.2228 7.31821 18.802 7.51078 18.4549C7.70335 18.1078 8.05798 17.8813 8.45386 17.8524C11.0333 17.6646 13.1666 17.829 15.171 18.5471C16.9948 19.2004 18.6295 20.2825 20.3563 21.8234C34.9013 17.3786 47.7359 23.0606 52.1824 32.7667C52.5194 32.6253 52.9129 32.4752 53.3364 32.3424C53.9308 32.156 54.6224 31.9915 55.322 31.9479C55.569 31.6901 55.8367 31.4502 56.1163 31.2231C57.0548 30.4607 58.4128 30.1989 59.3286 30.0918C59.8221 30.034 60.2668 30.0135 60.5877 30.0071C60.749 30.0039 60.881 30.0043 60.9747 30.0055C61.0216 30.0061 61.059 30.0069 61.0859 30.0077L61.1181 30.0086L61.128 30.009L61.1314 30.0091L61.1327 30.0092C61.1327 30.0092 61.1337 30.0092 61.0871 31.1845L61.1337 30.0092C61.7828 30.035 62.2881 30.582 62.2623 31.2311C62.2366 31.8797 61.6903 32.3848 61.0418 32.3598L61.0408 32.3597L61.0221 32.3592C61.0056 32.3587 60.9792 32.3581 60.9438 32.3577C60.8729 32.3567 60.7669 32.3564 60.6343 32.359C60.3676 32.3643 60.0014 32.3815 59.6019 32.4282C59.0409 32.4939 58.5271 32.6061 58.1322 32.7593C59.2426 33.6641 60.0882 35.1999 60.4214 36.5434C60.6035 37.2773 60.6799 38.1346 60.4157 38.8957C60.277 39.2951 60.037 39.6857 59.6575 39.9879C59.2761 40.2916 58.8213 40.452 58.3416 40.4968C56.928 40.6287 55.8067 39.9493 55.0743 39.0236C54.3606 38.1214 53.9668 36.9427 53.8872 35.8136C53.8577 35.3966 53.8735 34.9998 53.9332 34.6213C53.5243 34.7549 53.1462 34.9086 52.8406 35.0448ZM56.4212 34.4286C56.2724 34.7634 56.1986 35.1502 56.2337 35.6481C56.2858 36.3866 56.5459 37.0923 56.9192 37.5641C57.2738 38.0124 57.6726 38.1966 58.1231 38.1546C58.1518 38.1519 58.172 38.1481 58.1855 38.1448C58.1879 38.1393 58.1905 38.1325 58.1934 38.1241C58.244 37.9784 58.2697 37.6398 58.1382 37.1097C57.8731 36.0409 57.1618 34.9268 56.5107 34.4812C56.484 34.4628 56.4542 34.4452 56.4212 34.4286Z" fill="currentColor"/>
<path d="M15.988 34.3457C15.988 35.1632 15.3253 35.8259 14.5078 35.8259C13.6903 35.8259 13.0276 35.1632 13.0276 34.3457C13.0276 33.5282 13.6903 32.8655 14.5078 32.8655C15.3253 32.8655 15.988 33.5282 15.988 34.3457Z" fill="currentColor"/>
<circle cx="28.2073" cy="12.3485" r="7.59836" fill="currentColor" stroke="#F6F1EB" stroke-width="1.7"/>
<path d="M31.9713 28.4078C35.6184 28.4078 38.5749 25.4513 38.5749 21.8043C38.5749 18.1572 35.6184 15.2007 31.9713 15.2007C28.3243 15.2007 25.3677 18.1572 25.3677 21.8043C25.3677 25.4513 28.3243 28.4078 31.9713 28.4078Z" fill="currentColor" stroke="#F6F1EB" stroke-width="1.5"/>
<path d="M23.8249 27.7354C30.0217 26.2723 33.3406 26.4665 39.4729 28.1582" stroke="currentColor" stroke-width="3"/>
</svg>
