<svg viewBox="0 0 16 16" xmlns="http://www.w3.org/2000/svg">
  <path fill-rule="evenodd" clip-rule="evenodd" d="M5 10C6.10457 10 7 9.10457 7 8C7 6.89543 6.10457 6 5 6C3.89543 6 3 6.89543 3 8C3 9.10457 3.89543 10 5 10ZM5 12C7.20914 12 9 10.2091 9 8C9 5.79086 7.20914 4 5 4C2.79086 4 1 5.79086 1 8C1 10.2091 2.79086 12 5 12Z" fill="currentColor"/>
  <path d="M16 2.5C16 3.88071 14.8807 5 13.5 5C12.1193 5 11 3.88071 11 2.5C11 1.11929 12.1193 0 13.5 0C14.8807 0 16 1.11929 16 2.5Z" fill="currentColor"/>
  <path d="M16 13.5C16 14.8807 14.8807 16 13.5 16C12.1193 16 11 14.8807 11 13.5C11 12.1193 12.1193 11 13.5 11C14.8807 11 16 12.1193 16 13.5Z" fill="currentColor"/>
  <path fill-rule="evenodd" clip-rule="evenodd" d="M12.9446 1.66793L8.44483 4.66794L9.55427 6.33201L14.054 3.332L12.9446 1.66793Z" fill="currentColor"/>
  <path fill-rule="evenodd" clip-rule="evenodd" d="M12.9445 14.332L8.44483 11.332L9.5543 9.66794L14.0539 12.668L12.9445 14.332Z" fill="currentColor"/>
</svg>
