<svg xmlns="http://www.w3.org/2000/svg" viewBox="0 0 98 87" fill="none">
<path d="M72.5 77.25V55.5C72.5 54.3954 73.3954 53.5 74.5 53.5C75.6046 53.5 76.5 54.3954 76.5 55.5V77.25C76.5 79.3211 78.1789 81 80.25 81C82.3211 81 84 79.3211 84 77.25V33.0073C84 32.001 85.3189 31.625 85.8496 32.48L90.7547 40.3826C91.878 42.1923 94.4233 42.4186 95.8482 40.8354C96.8212 39.7542 96.9419 38.1526 96.1419 36.9378L86.3708 22.1001C84.8908 19.8528 82.3803 18.5 79.6894 18.5L65.4235 18.5C65.1528 18.5 64.8937 18.3902 64.7053 18.1958L51.7586 4.83143C50.517 3.54984 48.4664 3.53357 47.2047 4.79529C45.9785 6.02152 45.9543 8.00205 47.1503 9.25782L64.1724 27.131C64.7037 27.6889 65 28.4297 65 29.2V77.25C65 79.3211 66.6789 81 68.75 81C70.8211 81 72.5 79.3211 72.5 77.25Z" fill="white" stroke="currentColor" stroke-width="2"/>
<path d="M26 77.25V55.5C26 54.3954 25.1046 53.5 24 53.5C22.8954 53.5 22 54.3954 22 55.5V77.25C22 79.3211 20.3211 81 18.25 81C16.1789 81 14.5 79.3211 14.5 77.25L14.5 33.0073C14.5 32.001 13.1811 31.625 12.6504 32.48L7.74528 40.3826C6.62203 42.1923 4.0767 42.4186 2.65184 40.8354C1.6788 39.7542 1.55807 38.1526 2.35806 36.9378L12.1292 22.1001C13.6092 19.8528 16.1197 18.5 18.8106 18.5L33.0765 18.5C33.3472 18.5 33.6063 18.3902 33.7947 18.1958L46.7414 4.83143C47.983 3.54984 50.0336 3.53357 51.2953 4.79529C52.5215 6.02152 52.5457 8.00205 51.3497 9.25782L34.3276 27.131C33.7963 27.6889 33.5 28.4297 33.5 29.2L33.5 77.25C33.5 79.3211 31.8211 81 29.75 81C27.6789 81 26 79.3211 26 77.25Z" fill="white" stroke="currentColor" stroke-width="2"/>
<circle cx="24" cy="8" r="7" stroke="currentColor" stroke-width="2"/>
<circle cx="74" cy="8" r="7" stroke="currentColor" stroke-width="2"/>
<line x1="15" y1="46" x2="34" y2="46" stroke="currentColor" stroke-width="2"/>
<line x1="66" y1="46" x2="85" y2="46" stroke="currentColor" stroke-width="2"/>
<line x1="6" y1="86" x2="92" y2="86" stroke="currentColor" stroke-width="2"/>
</svg>