<svg  viewBox="0 0 100 97" fill="none" xmlns="http://www.w3.org/2000/svg">
<path d="M52 56.7505H48L42 46.2505C42 46.2505 36.5605 46.8747 34 49.2505C28.861 54.0188 30 67.7505 30 67.7505H70C70 67.7505 71.139 54.0188 66 49.2505C63.4395 46.8747 58 46.2505 58 46.2505L52 56.7505Z" stroke="currentColor" stroke-width="2"/>
<path d="M36.0008 67.2503L37 57.7505" stroke="currentColor" stroke-width="2"/>
<path d="M63.9991 67.2504L62.9999 57.7505" stroke="currentColor" stroke-width="2"/>
<circle cx="50" cy="34.2505" r="9" stroke="currentColor" stroke-width="2"/>
<path d="M50.25 8.25014C29.5992 8.25026 12.4722 24.1101 10.4498 44.2505" stroke="currentColor" stroke-width="2"/>
<path d="M43.9999 14.2505L49.9999 8.25049L43.9999 2.25049" stroke="currentColor" stroke-width="2"/>
<path d="M10.2501 48.2506C10.2492 68.8153 25.9782 85.8852 46 88.0247" stroke="currentColor" stroke-width="2"/>
<path d="M4.50024 53.2505L10.5002 47.2505L16.5002 53.2505" stroke="currentColor" stroke-width="2"/>
<path d="M50 88.2501C70.6506 88.25 87.7775 72.3905 89.8002 52.2503" stroke="currentColor" stroke-width="2"/>
<path d="M56.0001 94.2503L50.0001 88.2503L56.0001 82.2503" stroke="currentColor" stroke-width="2"/>
<path d="M89.9995 48.2502C90.0005 27.5999 74.1403 10.4736 53.9997 8.45016" stroke="currentColor" stroke-width="2"/>
<path d="M84.0001 42.2505L90.0001 48.2505L96.0001 42.2505" stroke="currentColor" stroke-width="2"/>
</svg>
