<svg viewBox="0 0 32 33" fill="none" xmlns="http://www.w3.org/2000/svg">
<path d="M16 0.5C24.8366 0.5 32 7.66344 32 16.5C32 25.3366 24.8366 32.5 16 32.5C7.16344 32.5 0 25.3366 0 16.5C0 7.66344 7.16344 0.5 16 0.5ZM16 2.5C8.26801 2.5 2 8.76801 2 16.5C2 24.232 8.26801 30.5 16 30.5C23.732 30.5 30 24.232 30 16.5C30 8.76801 23.732 2.5 16 2.5ZM22.7168 11.7929C23.064 12.14 23.1025 12.6789 22.8326 13.0686L22.7168 13.2071L14.7071 21.2168C14.36 21.564 13.8211 21.6025 13.4314 21.3326L13.2929 21.2168L9.29289 17.2168C8.90237 16.8263 8.90237 16.1932 9.29289 15.8026C9.64003 15.4555 10.1789 15.4169 10.5686 15.6869L10.7071 15.8026L14 19.096L21.3026 11.7929C21.6932 11.4024 22.3263 11.4024 22.7168 11.7929Z" fill="currentColor"/>
</svg>
