<svg viewBox="0 0 32 33" fill="none" xmlns="http://www.w3.org/2000/svg">
<path d="M16 0.5C24.8366 0.5 32 7.66344 32 16.5C32 25.3366 24.8366 32.5 16 32.5C7.16344 32.5 0 25.3366 0 16.5C0 7.66344 7.16344 0.5 16 0.5ZM22.7168 11.7929C22.3697 11.4458 21.8309 11.4072 21.4411 11.6772L21.3026 11.7929L14 19.096L10.7071 15.8026L10.5686 15.6869C10.1789 15.4169 9.64003 15.4555 9.29289 15.8026C8.94576 16.1498 8.90719 16.6886 9.17718 17.0783L9.29289 17.2168L13.2929 21.2168L13.4314 21.3326C13.7724 21.5688 14.2276 21.5688 14.5686 21.3326L14.7071 21.2168L22.7168 13.2071L22.8326 13.0686C23.1025 12.6789 23.064 12.14 22.7168 11.7929Z" fill="currentColor"/>
</svg>
