<svg viewBox="0 0 24 20" fill="none" xmlns="http://www.w3.org/2000/svg">
<path d="M7.53902 19.515C16.5954 19.515 21.551 12.0048 21.551 5.503C21.551 5.29172 21.551 5.08043 21.5414 4.86915C22.5018 4.17767 23.3373 3.30372 24 2.31453C23.1164 2.70828 22.1657 2.96759 21.1669 3.09244C22.1849 2.4874 22.9628 1.51741 23.3373 0.364946C22.3866 0.931572 21.3301 1.33493 20.2065 1.55582C19.3037 0.595438 18.0264 0 16.6146 0C13.8968 0 11.6879 2.20888 11.6879 4.92677C11.6879 5.31092 11.7359 5.68547 11.8127 6.05042C7.72149 5.84874 4.09124 3.87995 1.66146 0.902761C1.2389 1.63265 0.9988 2.47779 0.9988 3.38055C0.9988 5.09004 1.87275 6.59784 3.18848 7.48139C2.38175 7.45258 1.62305 7.23169 0.960384 6.86675C0.960384 6.88595 0.960384 6.90516 0.960384 6.93397C0.960384 9.31573 2.66026 11.3133 4.90756 11.7647C4.4946 11.88 4.06242 11.9376 3.61104 11.9376C3.29412 11.9376 2.98679 11.9088 2.68908 11.8511C3.31333 13.8103 5.13806 15.2317 7.28932 15.2701C5.59904 16.5954 3.47659 17.383 1.17167 17.383C0.777912 17.383 0.384154 17.3637 0 17.3157C2.17047 18.6987 4.76351 19.515 7.53902 19.515Z" fill="currentColor"/>
</svg>
