<svg viewBox="0 0 65 64" fill="none" xmlns="http://www.w3.org/2000/svg">
<path d="M42.2436 51.5852C42.1691 51.7094 42.2187 51.8335 42.3677 51.8335H44.0068C44.1806 51.8335 44.28 51.759 44.3793 51.5852L54.1888 34.6482C54.2633 34.5241 54.2137 34.3999 54.0647 34.3999H52.4504C52.2518 34.3999 52.1524 34.4744 52.0531 34.6482L42.2436 51.5852ZM43.2618 43.3651C44.727 43.3651 45.8942 42.5704 46.2916 41.3783C46.4654 40.8568 46.4902 40.6333 46.4902 38.9197C46.4902 37.2062 46.4654 36.9827 46.2916 36.4611C45.8942 35.2691 44.727 34.4744 43.2618 34.4744C41.7717 34.4744 40.6293 35.2691 40.232 36.4611C40.0582 36.9827 40.0333 37.2062 40.0333 38.9197C40.0333 40.6333 40.0582 40.8568 40.232 41.3783C40.6293 42.5704 41.7717 43.3651 43.2618 43.3651ZM43.2618 41.577C42.7403 41.577 42.3429 41.3287 42.1691 40.8568C42.0946 40.6581 42.0697 40.4595 42.0697 38.9197C42.0697 37.38 42.0946 37.1813 42.1691 36.9578C42.3429 36.5108 42.7403 36.2625 43.2618 36.2625C43.7585 36.2625 44.1806 36.5108 44.3296 36.9578C44.4042 37.1813 44.429 37.38 44.429 38.9197C44.429 40.4595 44.4042 40.6581 44.3296 40.8568C44.1806 41.3287 43.7585 41.577 43.2618 41.577ZM50.0912 49.7971C50.4885 50.9892 51.6558 51.7839 53.1458 51.7839C54.611 51.7839 55.7782 50.9892 56.1756 49.7971C56.3494 49.2756 56.3743 49.0521 56.3743 47.3385C56.3743 45.625 56.3494 45.4015 56.1756 44.88C55.7782 43.6879 54.611 42.8932 53.1458 42.8932C51.6558 42.8932 50.4885 43.6879 50.0912 44.88C49.9422 45.4015 49.8925 45.625 49.8925 47.3385C49.8925 49.0521 49.9422 49.2756 50.0912 49.7971ZM52.0531 49.2756C51.9786 49.0769 51.9538 48.8783 51.9538 47.3385C51.9538 45.7988 51.9786 45.6001 52.0531 45.3766C52.2269 44.9296 52.6243 44.6813 53.1458 44.6813C53.6425 44.6813 54.0647 44.9296 54.2137 45.3766C54.2882 45.6001 54.313 45.7988 54.313 47.3385C54.313 48.8783 54.2882 49.0769 54.2137 49.2756C54.0647 49.7475 53.6425 49.9958 53.1458 49.9958C52.6243 49.9958 52.2269 49.7475 52.0531 49.2756Z" fill="currentColor"/>
<path d="M10.4929 45.7729C12.0481 50.6689 15.7921 53.4337 21.6097 53.4337C27.4273 53.4337 31.1713 50.6689 32.7841 45.7729C33.3025 44.1601 33.5905 42.3169 33.5905 33.2161C33.5905 24.1153 33.3025 22.2721 32.7841 20.6593C31.1713 15.7633 27.4273 12.9985 21.6097 12.9985C15.7921 12.9985 12.0481 15.7633 10.4929 20.6593C9.97446 22.2721 9.68646 24.1153 9.68646 33.2161C9.68646 42.3169 9.97446 44.1601 10.4929 45.7729ZM16.8289 44.5633C16.4257 43.3537 16.3105 42.0289 16.3105 33.2161C16.3105 24.4033 16.4257 23.0785 16.8289 21.8689C17.5777 19.7953 19.1905 18.7585 21.6097 18.7585C24.0289 18.7585 25.6993 19.7953 26.4481 21.8689C26.8513 23.0785 26.9665 24.4033 26.9665 33.2161C26.9665 42.0289 26.8513 43.3537 26.4481 44.5633C25.6993 46.6369 24.0289 47.6737 21.6097 47.6737C19.1905 47.6737 17.5777 46.6369 16.8289 44.5633Z" fill="currentColor"/>
<path d="M10.4929 45.7729C12.0481 50.6689 15.7921 53.4337 21.6097 53.4337C27.4273 53.4337 31.1713 50.6689 32.7841 45.7729C33.3025 44.1601 33.5905 42.3169 33.5905 33.2161C33.5905 24.1153 33.3025 22.2721 32.7841 20.6593C31.1713 15.7633 27.4273 12.9985 21.6097 12.9985C15.7921 12.9985 12.0481 15.7633 10.4929 20.6593C9.97446 22.2721 9.68646 24.1153 9.68646 33.2161C9.68646 42.3169 9.97446 44.1601 10.4929 45.7729ZM16.8289 44.5633C16.4257 43.3537 16.3105 42.0289 16.3105 33.2161C16.3105 24.4033 16.4257 23.0785 16.8289 21.8689C17.5777 19.7953 19.1905 18.7585 21.6097 18.7585C24.0289 18.7585 25.6993 19.7953 26.4481 21.8689C26.8513 23.0785 26.9665 24.4033 26.9665 33.2161C26.9665 42.0289 26.8513 43.3537 26.4481 44.5633C25.6993 46.6369 24.0289 47.6737 21.6097 47.6737C19.1905 47.6737 17.5777 46.6369 16.8289 44.5633Z" stroke="currentColor"/>
</svg>
