<svg width="25" height="25" viewBox="0 0 25 25" fill="none" xmlns="http://www.w3.org/2000/svg">
<path fill-rule="evenodd" clip-rule="evenodd" d="M24.4853 21.061C24.252 21.6374 23.7137 22.4489 22.9502 23.0207C22.5095 23.3509 21.9833 23.6665 21.2605 23.8747C20.4901 24.0968 19.5411 24.1719 18.3599 24.1719H7.55994C6.37887 24.1719 5.42986 24.0968 4.6593 23.8747C3.93652 23.6665 3.41042 23.3509 2.96958 23.0207C2.20627 22.4489 1.66786 21.6375 1.43456 21.061C0.96473 19.8997 0.959961 18.582 0.959961 17.7523V7.24761C0.959961 6.41787 0.96473 5.10017 1.43466 3.93888C1.66795 3.3625 2.20627 2.55095 2.96967 1.9793C3.41042 1.64914 3.93662 1.33353 4.6593 1.12527C5.42986 0.903176 6.37887 0.828125 7.55994 0.828125H18.36C19.5411 0.828125 20.4901 0.903176 21.2606 1.12527C21.9834 1.33353 22.5095 1.64923 22.9503 1.9793C23.7137 2.55104 24.2521 3.3625 24.4854 3.93888C24.9552 5.10017 24.96 6.41787 24.96 7.24761V17.7522C24.96 18.582 24.9552 19.8997 24.4853 21.061Z" fill="url(#paint0_linear_8911_16669)"/>
<path d="M14.7005 14.2456C14.3404 13.8761 13.7079 13.6392 12.9611 13.6392C12.2143 13.6392 11.5818 13.8761 11.2217 14.2456C11.0337 14.4385 10.9343 14.6362 10.9031 14.9178C10.8424 15.4633 10.8764 15.9328 10.9422 16.6837C11.0047 17.3991 11.1236 18.3532 11.2787 19.3249C11.389 20.0164 11.4788 20.3896 11.5604 20.6569C11.6927 21.0901 12.1875 21.4689 12.9611 21.4689C13.7347 21.4689 14.2295 21.09 14.3618 20.6569C14.4435 20.3897 14.5331 20.0165 14.6435 19.3249C14.7986 18.3532 14.9174 17.3992 14.98 16.6837C15.0457 15.9328 15.0798 15.4632 15.0191 14.9178C14.9878 14.6362 14.8884 14.4386 14.7005 14.2456ZM10.9988 10.9548C10.9988 12.01 11.8782 12.8653 12.9629 12.8653C14.0478 12.8653 14.9272 12.01 14.9272 10.9548C14.9272 9.89974 14.0478 9.04431 12.9629 9.04431C11.8782 9.04431 10.9988 9.89974 10.9988 10.9548ZM12.9386 3.41532C8.34492 3.42803 4.58082 7.05282 4.52397 11.5206C4.47791 15.1398 6.85311 18.2357 10.1699 19.3705C10.2504 19.3981 10.3321 19.3331 10.3194 19.2509C10.276 18.97 10.2349 18.6875 10.1973 18.4099C10.1839 18.3117 10.1196 18.2271 10.0264 18.1875C7.40487 17.0735 5.57428 14.5161 5.60365 11.554C5.64219 7.66649 8.90584 4.49729 12.9026 4.46584C16.9885 4.43374 20.323 7.6573 20.323 11.6241C20.323 14.5567 18.5004 17.0826 15.8992 18.1877C15.8061 18.2273 15.7422 18.3122 15.7289 18.4102C15.6912 18.6877 15.6502 18.97 15.6068 19.2508C15.5941 19.3329 15.6758 19.398 15.7563 19.3704C19.0414 18.2465 21.4029 15.1987 21.4029 11.6241C21.4028 7.08993 17.6035 3.40251 12.9386 3.41532ZM12.7861 7.18149C15.3902 7.08334 17.5409 9.11546 17.5409 11.6269C17.5409 12.9042 16.9845 14.0573 16.0953 14.8694C16.0199 14.9382 15.9793 15.036 15.9851 15.1364C16.0028 15.442 15.9963 15.7388 15.9755 16.074C15.9698 16.1634 16.0728 16.2204 16.1489 16.1699C17.64 15.1788 18.6208 13.5123 18.6208 11.6268C18.6208 8.52238 15.9622 6.01046 12.7433 6.1318C9.75184 6.24451 7.35184 8.64354 7.3135 11.5551C7.28832 13.4702 8.2751 15.1666 9.78541 16.1702C9.86124 16.2206 9.96396 16.1634 9.95833 16.0742C9.93735 15.7388 9.93096 15.4419 9.94861 15.1364C9.95442 15.0361 9.91408 14.9384 9.83873 14.8696C8.92176 14.0323 8.35865 12.8322 8.39451 11.5075C8.45765 9.17613 10.3901 7.27175 12.7861 7.18149Z" fill="white"/>
<defs>
<linearGradient id="paint0_linear_8911_16669" x1="12.96" y1="0.828125" x2="12.96" y2="24.1718" gradientUnits="userSpaceOnUse">
<stop stop-color="#F452FF"/>
<stop offset="1" stop-color="#832BC1"/>
</linearGradient>
</defs>
</svg>
