<svg width="495" height="640" viewBox="0 0 495 640" fill="none" xmlns="http://www.w3.org/2000/svg">
<g clip-path="url(#clip0_4540_19742)">
<path d="M-151 653C-151 653 -1.26872 640.207 83 606.5C155.5 577.5 250.759 550.22 291 456.499C336.871 349.667 249.496 261.799 219.5 167.499C189.504 73.2001 341.336 88.3922 359 89.4993C376.664 90.6064 474.667 112.833 532 124.5" stroke="url(#paint0_linear_4540_19742)" stroke-dasharray="9 9"/>
<circle cx="194.5" cy="559" r="46" fill="#F6F1EB"/>
<circle cx="296.5" cy="347" r="46" fill="#F6F1EB"/>
<circle cx="227.5" cy="136" r="46" fill="#F6F1EB"/>
<path fill-rule="evenodd" clip-rule="evenodd" d="M241.261 144.027L229.074 156.216L209.227 136.514L219.043 161.5L244.237 151.602L241.261 144.027ZM207.375 112.5H226.469L248.208 134.193L229.068 153.333L207.375 131.8V112.5ZM218.396 120.052C218.396 118.137 216.842 116.583 214.927 116.583C213.012 116.583 211.458 118.137 211.458 120.052C211.458 121.967 213.012 123.521 214.927 123.521C216.842 123.521 218.396 121.967 218.396 120.052ZM229.966 142.256C229.876 142.338 229.778 142.29 229.755 142.174L226.374 126.55C226.339 126.39 226.358 126.29 226.478 126.181L227.453 125.294C227.543 125.212 227.642 125.26 227.665 125.376L231.045 141.001C231.081 141.16 231.062 141.26 230.957 141.355L229.966 142.256ZM226.591 133.782C227.006 134.721 226.738 135.843 225.853 136.648C224.952 137.467 223.825 137.614 222.93 137.112C222.538 136.893 222.401 136.771 221.459 135.736C220.517 134.701 220.409 134.552 220.228 134.141C219.813 133.203 220.066 132.095 220.967 131.276C221.852 130.471 222.994 130.309 223.889 130.811C224.281 131.031 224.419 131.152 225.36 132.188C226.302 133.223 226.41 133.372 226.591 133.782ZM223.814 135.733C224.178 135.922 224.555 135.854 224.87 135.567C225.17 135.294 225.289 134.912 225.119 134.545C225.055 134.384 224.961 134.251 224.115 133.32C223.269 132.39 223.145 132.284 222.977 132.19C222.641 132.001 222.25 132.083 221.949 132.356C221.634 132.643 221.531 133.011 221.671 133.377C221.749 133.553 221.843 133.687 222.689 134.617C223.536 135.547 223.66 135.654 223.814 135.733ZM236.451 136.303C235.551 137.122 234.409 137.283 233.514 136.781C233.137 136.548 232.984 136.44 232.043 135.405C231.101 134.369 231.008 134.207 230.812 133.81C230.397 132.871 230.665 131.75 231.566 130.931C232.451 130.126 233.593 129.965 234.488 130.466C234.88 130.686 235.018 130.807 235.959 131.843C236.901 132.878 237.009 133.027 237.19 133.438C237.605 134.376 237.337 135.498 236.451 136.303ZM233.288 134.272C234.134 135.202 234.259 135.309 234.413 135.388C234.777 135.578 235.154 135.509 235.469 135.223C235.769 134.95 235.887 134.568 235.718 134.201C235.654 134.04 235.56 133.906 234.714 132.976C233.868 132.045 233.743 131.939 233.576 131.845C233.24 131.657 232.848 131.738 232.548 132.011C232.233 132.298 232.129 132.666 232.27 133.032C232.348 133.208 232.442 133.342 233.288 134.272Z" fill="#685946"/>
<path d="M299.167 347L297.561 337.667H296.14L294.5 347C293.109 347.81 292.167 349.296 292.167 351.02C292.167 353.596 294.257 355.687 296.833 355.687C299.409 355.687 301.5 353.596 301.5 351.02C301.5 349.296 300.557 347.81 299.167 347ZM296.833 328.333C283.949 328.333 273.5 338.78 273.5 351.667C273.5 364.554 283.949 375 296.833 375C309.718 375 320.167 364.554 320.167 351.667C320.167 338.78 309.718 328.333 296.833 328.333ZM296.833 370.333C286.541 370.333 278.167 361.959 278.167 351.667C278.167 341.374 286.541 333 296.833 333C307.126 333 315.5 341.374 315.5 351.667C315.5 361.959 307.126 370.333 296.833 370.333ZM292.167 324.089V319H301.5V324.089C298.145 323.522 295.452 323.534 292.167 324.089ZM313.584 329.283L316.867 326L320.167 329.299L317.084 332.382C316.006 331.252 314.835 330.221 313.584 329.283ZM284 351.667C284 352.311 283.477 352.833 282.833 352.833C282.189 352.833 281.667 352.311 281.667 351.667C281.667 351.023 282.189 350.5 282.833 350.5C283.477 350.5 284 351.023 284 351.667ZM312 351.667C312 352.311 311.477 352.833 310.833 352.833C310.189 352.833 309.667 352.311 309.667 351.667C309.667 351.023 310.189 350.5 310.833 350.5C311.477 350.5 312 351.023 312 351.667ZM298 365.667C298 366.311 297.477 366.833 296.833 366.833C296.189 366.833 295.667 366.311 295.667 365.667C295.667 365.023 296.189 364.5 296.833 364.5C297.477 364.5 298 365.023 298 365.667ZM288.667 361C288.667 361.644 288.144 362.167 287.5 362.167C286.856 362.167 286.333 361.644 286.333 361C286.333 360.356 286.856 359.833 287.5 359.833C288.144 359.833 288.667 360.356 288.667 361ZM307.333 361C307.333 361.644 306.811 362.167 306.167 362.167C305.523 362.167 305 361.644 305 361C305 360.356 305.523 359.833 306.167 359.833C306.811 359.833 307.333 360.356 307.333 361ZM288.667 340C288.667 340.644 288.144 341.167 287.5 341.167C286.856 341.167 286.333 340.644 286.333 340C286.333 339.356 286.856 338.833 287.5 338.833C288.144 338.833 288.667 339.356 288.667 340ZM307.333 340C307.333 340.644 306.811 341.167 306.167 341.167C305.523 341.167 305 340.644 305 340C305 339.356 305.523 338.833 306.167 338.833C306.811 338.833 307.333 339.356 307.333 340Z" fill="#685946"/>
<path d="M196.969 560.137V534.25C209.862 535.318 220 546.101 220 559.27C220 573.146 208.75 584.395 194.875 584.395C188.692 584.395 183.037 582.151 178.661 578.445L196.969 560.137ZM192.781 534.25C179.888 535.318 169.75 546.101 169.75 559.27C169.75 565.455 171.995 571.108 175.7 575.486L178 573.145C175.044 569.534 172.75 564.289 172.75 559.27C172.75 548.431 182.214 538.198 192.781 537.145V534.25Z" fill="#685946"/>
</g>
<defs>
<linearGradient id="paint0_linear_4540_19742" x1="491.5" y1="63.5" x2="-165" y2="760.5" gradientUnits="userSpaceOnUse">
<stop offset="0.0488488" stop-color="#DD8217" stop-opacity="0"/>
<stop offset="0.259104" stop-color="#DD8217"/>
<stop offset="0.860512" stop-color="#DD8217" stop-opacity="0"/>
</linearGradient>
<clipPath id="clip0_4540_19742">
<rect width="495" height="640" fill="white"/>
</clipPath>
</defs>
</svg>
