<svg width="24" height="25" viewBox="0 0 24 25" fill="none" xmlns="http://www.w3.org/2000/svg">
<g clip-path="url(#clip0_8911_16658)">
<path d="M3 11.6816V13.318C3 14.1465 2.32842 14.818 1.5 14.818C0.671578 14.818 0 14.1465 0 13.318V11.6816C0 10.8532 0.671578 10.1816 1.5 10.1816C2.32842 10.1816 3 10.8532 3 11.6816Z" fill="#0066D9"/>
<path d="M21.0006 11.7243C21.0002 11.7101 21 11.6959 21 11.6816C21 10.8532 21.6716 10.1816 22.5 10.1816C23.3284 10.1816 24 10.8532 24 11.6816C24 11.6959 23.9998 11.7101 23.9994 11.7243H24V13.3607H23.9994C23.9769 14.1693 23.3142 14.818 22.5 14.818C21.6858 14.818 21.0232 14.1693 21.0006 13.3607H21V11.7242H21.0006V11.7243Z" fill="#4285F4"/>
<path d="M8.18176 16.5909V18.2273C8.18176 19.0557 7.51023 19.7273 6.68176 19.7273C5.85329 19.7273 5.18176 19.0557 5.18176 18.2273V16.5909C5.18176 15.7625 5.85334 15.0909 6.68176 15.0909C7.51018 15.0909 8.18176 15.7625 8.18176 16.5909V16.5909ZM8.18176 6.7727V12.125H8.18139C8.16329 12.9377 7.49879 13.5909 6.68176 13.5909C5.86473 13.5909 5.20028 12.9377 5.18218 12.125H5.18176V6.7727C5.18176 5.94428 5.85334 5.27271 6.68176 5.27271C7.51018 5.27271 8.18176 5.94428 8.18176 6.7727Z" fill="#EA4335"/>
<path d="M15.8182 8.40906C15.8182 9.23749 16.4898 9.90906 17.3182 9.90906C18.1467 9.90906 18.8182 9.23749 18.8182 8.40906V6.7727C18.8182 5.94428 18.1467 5.27271 17.3182 5.27271C16.4898 5.27271 15.8182 5.94428 15.8182 6.7727V8.40906Z" fill="#34A853"/>
<path d="M10.5 3.63641C10.5 4.46478 11.1716 5.13641 12 5.13641C12.8284 5.13641 13.5 4.46478 13.5 3.63641V2C13.5 1.17158 12.8284 0.5 12 0.5C11.1716 0.5 10.5 1.17158 10.5 2V3.63641ZM10.5 21.3636C10.5 20.5352 11.1716 19.8636 12 19.8636C12.8284 19.8636 13.5 20.5352 13.5 21.3636V23C13.5 23.8284 12.8284 24.5 12 24.5C11.1716 24.5 10.5 23.8284 10.5 23V21.3636Z" fill="#FAB908"/>
<path d="M15.8182 12.9089C15.8182 12.0805 16.4898 11.4089 17.3182 11.4089C18.1467 11.4089 18.8182 12.0805 18.8182 12.9089V18.2271C18.8182 19.0556 18.1467 19.7271 17.3182 19.7271C16.4898 19.7271 15.8182 19.0556 15.8182 18.2271V12.9089Z" fill="#34A853"/>
<path d="M13.5 8.13623V16.8634C13.5 17.6919 12.8284 18.3634 12 18.3634C11.1716 18.3634 10.5 17.6919 10.5 16.8634V8.13623C10.5 7.30776 11.1716 6.63623 12 6.63623C12.8284 6.63623 13.5 7.30776 13.5 8.13623Z" fill="#FAB908"/>
</g>
<defs>
<clipPath id="clip0_8911_16658">
<rect width="24" height="24" fill="white" transform="translate(0 0.5)"/>
</clipPath>
</defs>
</svg>
