<svg viewBox="0 0 258 36" fill="none" xmlns="http://www.w3.org/2000/svg">
<path d="M37.062 0H18.8395C8.44691 0 0 8.0275 0 17.9075C0 27.7875 8.44691 35.815 18.8395 35.815H37.062C47.4545 35.815 55.9015 27.7875 55.9015 17.9075C55.9015 8.0275 47.4545 0 37.062 0ZM24.0595 25.365C24.0595 26.8375 22.8731 28.31 21.402 28.31C19.9309 28.31 18.7445 26.8375 18.7445 25.365V16.3875C18.7445 15.682 19.0245 15.0054 19.5229 14.5066C20.0213 14.0077 20.6972 13.7275 21.402 13.7275C22.1068 13.7275 22.7827 14.0077 23.2811 14.5066C23.7795 15.0054 24.0595 15.682 24.0595 16.3875V25.365ZM30.8455 25.365C30.8455 26.8375 29.6591 28.31 28.188 28.31C26.7169 28.31 25.5305 26.8375 25.5305 25.365V13.49C25.5305 12.7845 25.8105 12.1079 26.3089 11.6091C26.8073 11.1102 27.4832 10.83 28.188 10.83C28.8928 10.83 29.5687 11.1102 30.0671 11.6091C30.5655 12.1079 30.8455 12.7845 30.8455 13.49V25.365ZM37.6315 25.365C37.6315 26.8375 36.4451 28.31 34.974 28.31C33.5029 28.31 32.3165 26.8375 32.3165 25.365V10.2125C32.3165 9.50702 32.5965 8.83044 33.0949 8.33159C33.5933 7.83275 34.2692 7.5525 34.974 7.5525C35.6788 7.5525 36.3547 7.83275 36.8531 8.33159C37.3515 8.83044 37.6315 9.50702 37.6315 10.2125V25.365ZM78.9169 27.075V13.775C78.9124 13.6094 78.9545 13.4459 79.0385 13.3031C79.1224 13.1603 79.2447 13.044 79.3915 12.9675C79.7646 12.7458 80.1914 12.6308 80.6253 12.635C81.016 12.6208 81.4002 12.7378 81.7167 12.9675C81.857 13.0516 81.9739 13.1696 82.0568 13.3107C82.1397 13.4518 82.186 13.6114 82.1913 13.775V14.9625C82.6037 14.1701 83.2337 13.5121 84.0072 13.0661C84.7807 12.6201 85.6654 12.4046 86.5571 12.445C87.4912 12.4317 88.3996 12.7516 89.1196 13.3475C89.8952 13.9876 90.4851 14.8242 90.828 15.77C91.302 14.7675 92.0404 13.9135 92.9635 13.3C93.7931 12.7471 94.7666 12.4498 95.7633 12.445C96.5215 12.4358 97.2731 12.5877 97.9684 12.8907C98.6637 13.1936 99.2869 13.6407 99.7969 14.2025C100.378 14.8347 100.827 15.5757 101.121 16.3828C101.414 17.1899 101.545 18.0471 101.505 18.905V27.0275C101.488 27.1938 101.432 27.3536 101.341 27.494C101.25 27.6343 101.128 27.7512 100.983 27.835C100.622 28.0872 100.19 28.22 99.7495 28.215C99.3257 28.2055 98.9137 28.0736 98.5631 27.835C98.4186 27.7512 98.296 27.6343 98.2053 27.494C98.1145 27.3536 98.0583 27.1938 98.0411 27.0275V18.905C98.0677 18.4462 98.0016 17.9868 97.8467 17.5542C97.6918 17.1217 97.4512 16.7248 97.1395 16.3875C96.8618 16.102 96.5297 15.875 96.163 15.72C95.7962 15.5651 95.4021 15.4852 95.004 15.4852C94.6059 15.4852 94.2118 15.5651 93.845 15.72C93.4783 15.875 93.1462 16.102 92.8685 16.3875C92.5499 16.7122 92.3012 17.099 92.1379 17.5239C91.9747 17.9488 91.9003 18.4027 91.9195 18.8575V27.075C91.9207 27.252 91.8725 27.4259 91.7802 27.577C91.688 27.7281 91.5554 27.8503 91.3975 27.93C91.0175 28.1296 90.5926 28.2277 90.1636 28.215C89.7511 28.2166 89.3442 28.1189 88.9773 27.93C88.8193 27.8503 88.6867 27.7281 88.5945 27.577C88.5023 27.4259 88.454 27.252 88.4553 27.075V18.905C88.478 18.461 88.4098 18.017 88.2547 17.6004C88.0997 17.1838 87.8611 16.8034 87.5536 16.4825C87.2807 16.1874 86.9506 15.951 86.5835 15.7877C86.2164 15.6244 85.8199 15.5376 85.4182 15.5325C85.0189 15.5246 84.6225 15.6009 84.2546 15.7564C83.8867 15.9119 83.5555 16.1431 83.2827 16.435C82.9726 16.7637 82.7326 17.1523 82.5776 17.577C82.4226 18.0017 82.3557 18.4536 82.3811 18.905V27.0275C82.3811 27.3125 82.1913 27.55 81.8591 27.835C81.4953 28.0829 81.0654 28.2155 80.6253 28.2155C80.1852 28.2155 79.7553 28.0829 79.3915 27.835C79.2505 27.7638 79.1318 27.6553 79.0481 27.5214C78.9644 27.3874 78.9191 27.233 78.9169 27.075ZM107.722 21.945C107.719 22.3878 107.805 22.8267 107.976 23.2349C108.148 23.6432 108.4 24.0124 108.718 24.32C109.015 24.6489 109.378 24.9118 109.782 25.0918C110.187 25.2717 110.625 25.3647 111.067 25.3647C111.51 25.3647 111.948 25.2717 112.353 25.0918C112.757 24.9118 113.12 24.6489 113.416 24.32C114.044 23.688 114.402 22.8362 114.413 21.945V18.9525C114.411 18.5175 114.322 18.0873 114.151 17.6874C113.98 17.2876 113.73 16.9263 113.416 16.625C113.127 16.2928 112.77 16.0274 112.368 15.847C111.967 15.6665 111.531 15.5755 111.091 15.58C110.644 15.5749 110.201 15.6655 109.792 15.8457C109.383 16.0259 109.017 16.2916 108.718 16.625C108.092 17.2389 107.734 18.0755 107.722 18.9525V21.945ZM104.305 21.945V18.905C104.305 18.0554 104.482 17.2151 104.825 16.438C105.169 15.6609 105.67 14.9642 106.298 14.3925C106.928 13.7664 107.677 13.2718 108.499 12.9375C109.322 12.6032 110.203 12.4358 111.091 12.445C111.968 12.4324 112.839 12.5938 113.654 12.9199C114.468 13.2461 115.21 13.7304 115.837 14.345C116.484 14.9139 117.001 15.6156 117.353 16.4024C117.705 17.1893 117.884 18.0428 117.877 18.905V21.945C117.873 22.8054 117.69 23.6555 117.338 24.4408C116.987 25.2261 116.475 25.9292 115.837 26.505C115.219 27.1383 114.481 27.6411 113.666 27.9838C112.851 28.3265 111.975 28.502 111.091 28.5C110.211 28.5045 109.339 28.3348 108.524 28.0005C107.71 27.6663 106.969 27.1742 106.346 26.5525C105.701 25.9713 105.186 25.2605 104.834 24.4666C104.483 23.6727 104.302 22.8134 104.305 21.945ZM120.867 27.075V13.775C120.862 13.6094 120.904 13.4459 120.988 13.3031C121.072 13.1603 121.195 13.044 121.341 12.9675C121.714 12.7458 122.141 12.6308 122.575 12.635C122.967 12.6138 123.353 12.7315 123.667 12.9675C123.8 13.0553 123.909 13.1753 123.983 13.3165C124.058 13.4576 124.096 13.6153 124.094 13.775V14.9625C124.478 14.2092 125.071 13.5826 125.802 13.1575C126.618 12.6671 127.556 12.4199 128.507 12.445C129.278 12.4416 130.04 12.6104 130.738 12.9391C131.436 13.2678 132.052 13.7481 132.541 14.345C133.666 15.5941 134.276 17.2235 134.249 18.905V27.0275C134.239 27.202 134.186 27.3712 134.095 27.5204C134.004 27.6695 133.877 27.7939 133.727 27.8825C133.351 28.0982 132.926 28.2128 132.493 28.215C132.074 28.223 131.661 28.1073 131.307 27.8825C131.149 27.8028 131.016 27.6806 130.924 27.5295C130.832 27.3784 130.784 27.2045 130.785 27.0275V18.9525C130.773 18.0613 130.416 17.2095 129.788 16.5775C129.509 16.2577 129.166 15.9997 128.782 15.82C128.397 15.6404 127.979 15.5429 127.555 15.534C127.131 15.5251 126.709 15.6048 126.318 15.7681C125.926 15.9314 125.572 16.1747 125.28 16.4825C124.961 16.8072 124.713 17.194 124.549 17.6189C124.386 18.0438 124.312 18.4977 124.331 18.9525V27.075C124.331 27.36 124.141 27.5975 123.809 27.8825C123.445 28.1304 123.015 28.263 122.575 28.263C122.135 28.263 121.705 28.1304 121.341 27.8825C121.202 27.7974 121.086 27.6792 121.003 27.5383C120.92 27.3974 120.873 27.2383 120.867 27.075ZM140.513 19.19H145.97C146.299 19.2345 146.633 19.1676 146.919 19C147.007 18.8954 147.073 18.7743 147.114 18.6439C147.155 18.5134 147.169 18.3761 147.157 18.24C147.157 17.8301 147.072 17.4246 146.909 17.0487C146.746 16.6728 146.507 16.3346 146.207 16.055C145.894 15.7514 145.522 15.5148 145.114 15.3596C144.706 15.2045 144.271 15.134 143.835 15.1525C142.966 15.1376 142.122 15.4418 141.462 16.0075C141.14 16.2714 140.883 16.6055 140.71 16.9842C140.538 17.363 140.454 17.7763 140.465 18.1925V19.19H140.513ZM137.096 21.945V18.81C137.092 17.9666 137.267 17.132 137.611 16.362C137.955 15.592 138.459 14.9043 139.089 14.345C140.38 13.1126 142.099 12.4312 143.882 12.445C145.578 12.4058 147.225 13.0176 148.485 14.155C149.103 14.6888 149.594 15.3538 149.922 16.1016C150.251 16.8494 150.408 17.6611 150.383 18.4775C150.392 19.0252 150.312 19.5706 150.146 20.0925C150.097 20.2784 150.008 20.4513 149.885 20.599C149.762 20.7468 149.608 20.8657 149.434 20.9475C149.157 21.1127 148.851 21.2254 148.533 21.28C148.171 21.3229 147.806 21.3387 147.441 21.3275H140.513V22.0875C140.487 22.5862 140.582 23.0837 140.788 23.5383C140.995 23.9929 141.307 24.3913 141.699 24.7C142.574 25.3935 143.669 25.7478 144.784 25.6975C145.661 25.7134 146.528 25.5006 147.299 25.08C147.752 24.7943 148.249 24.5856 148.77 24.4625C148.958 24.4705 149.141 24.5219 149.306 24.6125C149.47 24.7031 149.612 24.8306 149.719 24.985C149.959 25.2622 150.094 25.6155 150.099 25.9825C150.099 26.505 149.577 27.075 148.533 27.5975C147.339 28.1845 146.018 28.4621 144.689 28.405C142.712 28.4803 140.774 27.8394 139.232 26.6C138.527 26.0538 137.965 25.3452 137.593 24.5347C137.222 23.7242 137.051 22.8357 137.096 21.945ZM151.712 34.105C151.712 33.1075 152.044 32.6325 152.661 32.6325C153.658 32.6325 154.607 32.1575 155.556 31.2075C156.584 30.1202 157.204 28.7105 157.312 27.2175L151.807 14.4875C151.704 14.3515 151.653 14.1828 151.665 14.0125C151.679 13.7722 151.757 13.54 151.89 13.3397C152.024 13.1394 152.208 12.9781 152.424 12.8725C152.868 12.5532 153.396 12.3715 153.943 12.35C154.161 12.3203 154.382 12.3651 154.572 12.4771C154.761 12.5892 154.907 12.762 154.987 12.9675L159.115 23.6075L162.674 12.9675C162.753 12.7715 162.892 12.6058 163.071 12.4947C163.25 12.3835 163.461 12.3328 163.671 12.35C164.201 12.3797 164.711 12.5611 165.142 12.8725C165.365 12.9865 165.556 13.1551 165.697 13.3627C165.838 13.5702 165.925 13.8101 165.949 14.06C165.949 14.25 165.949 14.3925 165.901 14.44L161.061 27.265L160.491 28.7375C160.349 29.0225 160.159 29.4975 159.874 30.1625C159.59 30.8275 159.352 31.255 159.163 31.5875L158.356 32.8225C158.098 33.2616 157.76 33.6483 157.359 33.9625C157.027 34.2 156.647 34.485 156.268 34.77C155.855 35.0558 155.386 35.2501 154.892 35.34C154.365 35.4761 153.822 35.54 153.278 35.53C152.234 35.5775 151.712 35.1025 151.712 34.105ZM168.464 27.075V4.56C168.459 4.39441 168.501 4.23089 168.585 4.08811C168.669 3.94532 168.791 3.82903 168.938 3.7525C169.311 3.53082 169.738 3.41582 170.172 3.42C170.608 3.39938 171.039 3.51563 171.406 3.7525C171.557 3.82842 171.685 3.94329 171.776 4.08524C171.868 4.22719 171.92 4.39108 171.928 4.56V27.075C171.911 27.2413 171.854 27.4011 171.764 27.5415C171.673 27.6818 171.55 27.7987 171.406 27.8825C171.042 28.1304 170.612 28.263 170.172 28.263C169.732 28.263 169.302 28.1304 168.938 27.8825C168.799 27.7974 168.683 27.6792 168.6 27.5383C168.517 27.3974 168.47 27.2383 168.464 27.075ZM178.287 23.75C178.262 24.037 178.3 24.3261 178.398 24.5968C178.497 24.8676 178.653 25.1136 178.856 25.3175C179.061 25.5024 179.301 25.644 179.562 25.7338C179.823 25.8235 180.1 25.8597 180.375 25.84C181.271 25.8136 182.122 25.4388 182.747 24.795C183.086 24.5259 183.362 24.1875 183.559 23.8024C183.755 23.4172 183.867 22.9945 183.886 22.5625V21.3275H183.08C182.271 21.3157 181.462 21.3633 180.659 21.47C180.053 21.5571 179.48 21.8029 178.999 22.1825C178.765 22.3692 178.579 22.6085 178.455 22.8809C178.331 23.1533 178.274 23.4511 178.287 23.75ZM174.823 24.1775C174.823 22.42 175.487 21.2325 176.768 20.52C178.049 19.8075 179.995 19.475 182.463 19.475H183.886V18.8575C183.903 17.9374 183.62 17.037 183.08 16.2925C182.797 15.9254 182.428 15.6337 182.006 15.4432C181.584 15.2526 181.121 15.1691 180.659 15.2C179.808 15.1885 178.965 15.367 178.192 15.7225C177.822 15.9506 177.423 16.1264 177.005 16.245C176.823 16.2418 176.645 16.1921 176.487 16.1007C176.329 16.0093 176.197 15.8791 176.104 15.7225C175.879 15.3678 175.764 14.9549 175.772 14.535C175.772 13.965 176.294 13.49 177.338 13.0625C178.41 12.6391 179.554 12.4294 180.707 12.445C182.937 12.445 184.598 13.0625 185.69 14.25C186.79 15.5075 187.368 17.1394 187.303 18.81V27.0275C187.297 27.1908 187.25 27.3499 187.167 27.4908C187.084 27.6317 186.968 27.7499 186.829 27.835C186.48 28.0719 186.063 28.1886 185.642 28.1675C185.251 28.1887 184.864 28.071 184.551 27.835C184.415 27.7464 184.301 27.6273 184.218 27.4872C184.136 27.347 184.087 27.1897 184.076 27.0275V25.8875C182.605 27.5975 180.944 28.4525 179.141 28.4525C177.997 28.4933 176.88 28.1035 176.009 27.36C175.202 26.6475 174.823 25.555 174.823 24.1775ZM190.862 27.075V13.775C190.858 13.6094 190.9 13.4459 190.984 13.3031C191.068 13.1603 191.19 13.044 191.337 12.9675C191.71 12.7458 192.137 12.6308 192.571 12.635C192.962 12.6138 193.349 12.7315 193.662 12.9675C193.795 13.0553 193.904 13.1753 193.979 13.3165C194.054 13.4576 194.091 13.6153 194.089 13.775V14.9625C194.474 14.2092 195.067 13.5826 195.797 13.1575C196.613 12.6671 197.551 12.4199 198.502 12.445C199.274 12.4416 200.036 12.6104 200.734 12.9391C201.431 13.2678 202.047 13.7481 202.536 14.345C203.661 15.5941 204.271 17.2235 204.244 18.905V27.0275C204.234 27.202 204.181 27.3712 204.09 27.5204C203.999 27.6695 203.873 27.7939 203.722 27.8825C203.347 28.0982 202.922 28.2128 202.489 28.215C202.069 28.223 201.657 28.1073 201.302 27.8825C201.144 27.8028 201.012 27.6806 200.919 27.5295C200.827 27.3784 200.779 27.2045 200.78 27.0275V18.905C200.769 18.0138 200.412 17.162 199.784 16.53C199.504 16.2102 199.162 15.9522 198.777 15.7725C198.392 15.5929 197.975 15.4954 197.55 15.4865C197.126 15.4776 196.705 15.5573 196.313 15.7206C195.921 15.8839 195.568 16.1272 195.275 16.435C194.957 16.7597 194.708 17.1465 194.545 17.5714C194.382 17.9963 194.307 18.4502 194.326 18.905V27.0275C194.326 27.3125 194.137 27.55 193.804 27.835C193.441 28.0829 193.011 28.2155 192.571 28.2155C192.13 28.2155 191.701 28.0829 191.337 27.835C191.2 27.7592 191.084 27.6496 191.001 27.5166C190.918 27.3836 190.87 27.2316 190.862 27.075ZM210.508 21.945C210.505 22.3878 210.592 22.8267 210.763 23.2349C210.934 23.6432 211.187 24.0124 211.505 24.32C211.794 24.6522 212.151 24.9176 212.553 25.098C212.954 25.2785 213.39 25.3695 213.83 25.365C214.706 25.3525 215.542 24.994 216.155 24.3675C216.867 23.7025 217.199 23.1325 217.199 22.6575V18.905C217.216 18.4533 217.136 18.0032 216.964 17.5853C216.792 17.1673 216.533 16.7912 216.203 16.4825C215.578 15.8794 214.746 15.5393 213.878 15.5325C213.438 15.528 213.002 15.619 212.6 15.7995C212.199 15.9799 211.841 16.2453 211.552 16.5775C210.926 17.1914 210.568 18.028 210.556 18.905V21.945H210.508ZM207.044 21.945V18.9525C207.017 17.271 207.628 15.6416 208.753 14.3925C209.257 13.7895 209.889 13.3063 210.603 12.9777C211.317 12.6491 212.095 12.4834 212.881 12.4925C213.754 12.4843 214.613 12.7143 215.366 13.1578C216.118 13.6013 216.736 14.2417 217.152 15.01V4.6075C217.148 4.44191 217.19 4.27839 217.274 4.13561C217.357 3.99282 217.48 3.87653 217.627 3.8C218.002 3.5843 218.427 3.46974 218.86 3.4675C219.297 3.44015 219.73 3.55696 220.094 3.8C220.241 3.87653 220.363 3.99282 220.447 4.13561C220.531 4.27839 220.573 4.44191 220.569 4.6075V27.1225C220.557 27.2845 220.508 27.4416 220.426 27.5816C220.343 27.7216 220.23 27.8408 220.094 27.93C219.736 28.1889 219.302 28.3224 218.86 28.31C218.465 28.3073 218.081 28.1737 217.769 27.93C217.63 27.8449 217.513 27.7267 217.43 27.5858C217.348 27.4449 217.301 27.2858 217.294 27.1225V25.9825C216.899 26.7598 216.268 27.3917 215.491 27.7875C214.664 28.2967 213.71 28.5602 212.739 28.5475C211.96 28.5371 211.194 28.3525 210.496 28.0073C209.798 27.6621 209.186 27.1651 208.705 26.5525C207.652 25.2458 207.067 23.6235 207.044 21.945ZM224.128 27.8825C223.943 27.7249 223.796 27.5279 223.698 27.306C223.599 27.084 223.551 26.8428 223.558 26.6C223.556 26.3579 223.606 26.1182 223.704 25.897C223.803 25.6758 223.947 25.4782 224.128 25.3175C224.521 24.9721 225.029 24.7858 225.551 24.795C226.059 24.7944 226.548 24.9804 226.928 25.3175C227.112 25.4751 227.259 25.6721 227.358 25.894C227.456 26.116 227.504 26.3572 227.497 26.6C227.494 26.8413 227.443 27.0796 227.345 27.3001C227.247 27.5206 227.105 27.7188 226.928 27.8825C226.746 28.0589 226.53 28.1963 226.294 28.2862C226.057 28.376 225.804 28.4165 225.551 28.405C225.291 28.4205 225.03 28.3821 224.785 28.2922C224.54 28.2023 224.317 28.0628 224.128 27.8825ZM229.775 21.945V19C229.736 18.1421 229.866 17.2849 230.16 16.4778C230.453 15.6707 230.903 14.9297 231.483 14.2975C232.622 13.11 234.331 12.4925 236.561 12.4925C237.792 12.4418 239.017 12.7032 240.12 13.2525C241.069 13.7275 241.544 14.2975 241.544 14.915C241.538 15.3188 241.386 15.7069 241.117 16.0075C241.014 16.1707 240.875 16.3074 240.71 16.4065C240.545 16.5055 240.359 16.5641 240.167 16.5775C239.769 16.4678 239.387 16.3082 239.029 16.1025C238.332 15.7727 237.568 15.6101 236.798 15.6275C234.378 15.6275 233.192 16.7675 233.192 19.095V22.04C233.192 24.32 234.425 25.5075 236.846 25.5075C237.62 25.5092 238.383 25.3303 239.076 24.985C239.448 24.7622 239.847 24.5867 240.262 24.4625C240.466 24.459 240.667 24.5047 240.848 24.5957C241.03 24.6867 241.187 24.8202 241.306 24.985C241.576 25.2856 241.728 25.6737 241.733 26.0775C241.733 26.695 241.211 27.265 240.215 27.7875C239.08 28.348 237.826 28.625 236.561 28.595C234.283 28.595 232.575 27.9775 231.436 26.79C230.301 25.4369 229.709 23.7102 229.775 21.945ZM244.249 27.075V4.56C244.244 4.39441 244.286 4.23089 244.37 4.08811C244.454 3.94532 244.576 3.82903 244.723 3.7525C245.096 3.53082 245.523 3.41582 245.957 3.42C246.393 3.39938 246.824 3.51563 247.191 3.7525C247.342 3.82842 247.47 3.94329 247.561 4.08524C247.653 4.22719 247.705 4.39108 247.713 4.56V14.9625C248.089 14.2337 248.644 13.6126 249.326 13.1575C250.089 12.6677 250.982 12.4195 251.889 12.445C252.66 12.4416 253.422 12.6104 254.12 12.9391C254.818 13.2678 255.433 13.7481 255.922 14.345C257.047 15.5941 257.658 17.2235 257.631 18.905V27.0275C257.621 27.202 257.568 27.3712 257.477 27.5204C257.386 27.6695 257.259 27.7939 257.109 27.8825C256.733 28.0982 256.308 28.2128 255.875 28.215C255.455 28.223 255.043 28.1073 254.689 27.8825C254.531 27.8028 254.398 27.6806 254.306 27.5295C254.214 27.3784 254.165 27.2045 254.167 27.0275V18.9525C254.155 18.0613 253.798 17.2095 253.17 16.5775C252.881 16.2453 252.523 15.9799 252.122 15.7995C251.721 15.619 251.285 15.528 250.845 15.5325C250.435 15.5325 250.03 15.6168 249.655 15.7803C249.279 15.9437 248.941 16.1827 248.662 16.4825C248.343 16.8072 248.094 17.194 247.931 17.6189C247.768 18.0438 247.694 18.4977 247.713 18.9525V27.075C247.713 27.36 247.523 27.5975 247.191 27.8825C246.827 28.1298 246.397 28.262 245.957 28.262C245.517 28.262 245.087 28.1298 244.723 27.8825C244.595 27.7858 244.487 27.6647 244.405 27.5261C244.324 27.3876 244.271 27.2342 244.249 27.075Z" fill="#393939"/>
</svg>
