<svg width="24" height="25" viewBox="0 0 24 25" fill="none" xmlns="http://www.w3.org/2000/svg">
<g clip-path="url(#clip0_8911_16656)">
<path d="M12 0.5C5.37236 0.5 0 5.87236 0 12.5C0 19.1276 5.37236 24.5 12 24.5C18.6276 24.5 24 19.1276 24 12.5C24 5.87318 18.6276 0.500819 12 0.5ZM17.5034 17.8069C17.288 18.1606 16.827 18.2711 16.4749 18.0558C13.6573 16.3338 10.1101 15.9448 5.93326 16.8988C5.5304 16.9913 5.12917 16.7391 5.03746 16.3362C4.94493 15.9334 5.19632 15.5321 5.6 15.4404C10.1707 14.3964 14.0921 14.846 17.2553 16.7784C17.6074 16.9954 17.7196 17.4548 17.5034 17.8069ZM18.9715 14.5405C18.7005 14.9811 18.1241 15.1186 17.6843 14.8484C14.4598 12.866 9.54186 12.292 5.72692 13.4498C5.23234 13.5997 4.70993 13.3205 4.55926 12.8267C4.41024 12.3321 4.68946 11.8105 5.18321 11.6599C9.54104 10.3375 14.9593 10.9778 18.6628 13.2541C19.1034 13.5252 19.2426 14.1008 18.9715 14.5405ZM19.0976 11.1375C15.2295 8.84063 8.84913 8.62938 5.15619 9.74954C4.56336 9.92968 3.93613 9.59478 3.75681 9.00194C3.57748 8.40911 3.91157 7.78188 4.50522 7.60174C8.74432 6.31535 15.7904 6.56346 20.2432 9.20665C20.7763 9.52354 20.9515 10.2122 20.6354 10.7444C20.3202 11.2783 19.6299 11.4543 19.0976 11.1375Z" fill="#2EBD59"/>
</g>
<defs>
<clipPath id="clip0_8911_16656">
<rect width="24" height="24" fill="white" transform="translate(0 0.5)"/>
</clipPath>
</defs>
</svg>
