<svg width="25" height="25" viewBox="0 0 25 25" fill="none" xmlns="http://www.w3.org/2000/svg">
<path d="M12.9675 20.0769L8.45395 19.9943C6.99257 19.9656 5.52754 20.023 4.09481 19.725C1.91529 19.2797 1.76089 17.0966 1.59932 15.2653C1.3767 12.6908 1.46288 10.0696 1.883 7.51659C2.12017 6.08409 3.05354 5.2293 4.49697 5.13628C9.36958 4.79871 14.2746 4.83871 19.1364 4.9962C19.6499 5.01064 20.1669 5.08955 20.6732 5.17937C23.1724 5.61746 23.2334 8.09145 23.3954 10.1741C23.5569 12.2782 23.4887 14.3931 23.1799 16.4829C22.9322 18.2132 22.4581 19.6643 20.4577 19.8043C17.9513 19.9875 15.5024 20.135 12.989 20.088C12.9891 20.0769 12.9747 20.0769 12.9675 20.0769ZM10.314 15.6963C12.2028 14.6118 14.0555 13.5454 15.9335 12.4682C14.0412 11.3837 12.1919 10.3174 10.314 9.24017V15.6963Z" fill="#FF0000"/>
</svg>
