<svg width="692" height="513" viewBox="0 0 692 513" fill="none" xmlns="http://www.w3.org/2000/svg">
    <g opacity="0.2">
        <path fill-rule="evenodd" clip-rule="evenodd" d="M448.359 184.339C447.583 184.897 446.809 185.455 445.993 185.967L445.959 185.944C441.311 188.882 436.939 192.014 432.91 195.58C416.587 210.303 406.183 229.895 402.714 250.996H402.657C388.739 221.413 377.842 192.574 369.921 164.534C369.788 164.038 369.655 163.542 369.522 163.046C368.601 159.611 367.681 156.179 366.83 152.783C366.829 152.776 366.828 152.768 366.827 152.76C366.816 152.682 366.802 152.578 366.75 152.475C368.399 150.131 370.093 147.879 372.016 145.731C375.655 141.73 379.891 138.221 384.584 135.157C385.07 134.824 385.541 134.484 386.009 134.146C387.15 133.321 388.276 132.507 389.574 131.842C390.174 131.513 390.82 131.297 391.466 131.082C391.94 130.924 392.415 130.765 392.871 130.562C393.261 130.381 393.666 130.243 394.074 130.104C394.36 130.007 394.648 129.909 394.931 129.796C402.818 126.515 411.162 124.366 419.701 124.366C419.911 124.366 420.116 124.389 420.322 124.412C420.531 124.435 420.741 124.458 420.96 124.458C426.225 124.515 431.399 125.269 436.367 126.573C444.299 128.664 451.67 132.322 458.172 137.123C460.77 139.055 463.254 141.158 465.543 143.467C467.993 145.948 470.328 148.6 472.388 151.503C473.991 153.812 475.513 156.19 476.852 158.727C479.141 163.037 480.744 167.563 482.003 172.181C474.116 173.404 466.436 175.645 459.076 178.777C458.626 178.971 458.175 179.163 457.724 179.355C455.816 180.169 453.911 180.981 452.059 181.943C450.725 182.634 449.541 183.487 448.359 184.339ZM541.26 350.501C548.333 346.82 554.537 342.042 560.352 336.841L560.386 336.818C563.626 333.938 566.854 330.989 569.658 327.651C570.45 326.745 571.124 325.74 571.8 324.732C572.199 324.137 572.598 323.541 573.023 322.964C574.511 324.587 575.965 326.268 577.258 328.074C579.124 330.611 580.841 333.241 582.329 336.098C582.519 336.44 582.65 336.803 582.781 337.167C582.886 337.461 582.992 337.756 583.13 338.041C588.785 349.655 590.685 362.137 589.197 374.163C588.67 378.095 587.892 381.981 586.679 385.685C585.248 390.269 583.176 394.624 580.726 398.773C575.209 408.203 567.289 416.273 557.239 422.035C556.914 422.211 556.618 422.429 556.324 422.647C556.026 422.866 555.73 423.085 555.407 423.258C555.165 423.385 554.898 423.471 554.631 423.557C554.369 423.642 554.106 423.728 553.862 423.852C550.176 425.681 546.342 427.098 542.45 428.196C540.988 428.575 539.571 428.834 538.115 429.1C537.769 429.164 537.421 429.227 537.07 429.293L536.849 429.334C533.029 430.041 529.166 430.756 525.281 430.756C523.735 430.756 522.262 430.603 520.746 430.446C520.455 430.416 520.162 430.386 519.867 430.356C519.464 430.331 519.05 430.318 518.633 430.305C517.912 430.283 517.182 430.26 516.478 430.173C515.975 429.487 515.494 428.859 514.99 428.23C514.372 427.453 513.766 426.653 513.159 425.852L511.785 424.138C510.826 422.893 509.858 421.651 508.894 420.414C507.707 418.89 506.525 417.375 505.376 415.873C489.728 395.344 475.237 375.066 461.994 355.108V354.959C472.868 359.188 484.543 361.589 496.676 361.589C512.152 361.589 527.547 357.782 541.26 350.501Z" fill="#E1D9CE"/>
        <path fill-rule="evenodd" clip-rule="evenodd" d="M503.668 191.076C503.301 191.042 502.924 191.042 502.523 190.985C500.554 190.836 498.631 190.608 496.617 190.608C495.701 190.608 494.74 190.699 493.824 190.756C490.527 190.871 487.265 191.248 484.003 191.785C479.722 192.494 475.533 193.545 471.412 195.008L468.173 196.243C465.826 197.18 463.514 198.152 461.305 199.329C453.831 203.296 447.569 208.508 442.052 214.338C431.785 225.163 425.112 238.571 422.479 252.974C421.907 256.231 421.529 259.489 421.38 262.85C421.209 266.188 420.991 269.56 421.266 272.909C422.136 282.682 424.871 292.398 429.736 301.623C435.024 311.533 442.35 319.912 451.026 326.451C453.682 328.485 456.44 330.291 459.336 331.96C462.221 333.56 465.174 334.978 468.218 336.247C477.147 339.847 486.761 341.882 496.72 341.882C508.944 341.882 521.158 338.819 532.066 333.08C532.432 332.886 532.718 332.6 533.096 332.395C537.217 330.143 541.166 327.548 544.748 324.667C547.919 322.073 550.746 319.135 553.448 316.094C554.981 314.311 556.309 312.459 557.683 310.539C559.571 307.978 561.552 305.372 563.108 302.515C564.619 299.748 565.672 296.753 566.84 293.804C566.908 293.599 566.989 293.461 567.069 293.267C567.675 291.644 568.557 290.215 569.037 288.546C569.919 285.734 570.297 282.854 570.8 279.973C571.556 276.018 571.991 272.006 572.094 268.051C572.403 255.248 569.804 242.56 563.669 230.947C551.593 208.177 529.044 193.454 503.691 191.076H503.668Z" fill="#E1D9CE"/>
        <path fill-rule="evenodd" clip-rule="evenodd" d="M377.908 116.056C391.919 87.7081 405.093 44.0655 385.715 0C347.37 45.2657 355.016 96.3611 364.471 125.567C368.557 122.023 373.055 118.823 377.908 116.045V116.056ZM53.8891 216.578C55.1711 216.578 56.3386 216.784 57.3459 217.173L57.3345 217.184C62.6112 219.333 68.5518 234.445 61.9588 275.081C34.9112 313.534 19.825 346.717 16.3453 375.374C-11.7783 319.215 2.99891 274.441 12.1102 255.809C24.5637 230.329 42.9236 216.578 53.8891 216.578ZM87.6631 322.415L87.3426 326.073V326.085C82.0887 384.038 87.148 428.961 102.143 460.396C70.8027 449.742 50.474 434.654 41.2483 415.427C41.0413 415.01 40.8182 414.594 40.5948 414.178L40.5946 414.177C40.1389 413.327 39.6823 412.476 39.3597 411.609C37.9633 408.032 36.9331 404.282 36.2463 400.442C34.2661 389.342 35.2505 376.906 38.8446 363.12C40.6989 357.542 42.5074 352.021 44.1328 346.797C49.1692 333.789 56.552 319.729 65.9609 304.755C66.5161 303.865 67.0646 302.976 67.6133 302.086C69.3273 299.307 71.044 296.524 72.9775 293.701C74.4082 295.622 75.839 297.874 77.2698 300.194C80.7953 306.127 84.2292 313.294 87.6631 322.415ZM126.441 351.678L118.199 346.82C117.672 346.55 117.128 346.247 116.599 345.953C116.233 345.75 115.874 345.551 115.532 345.368C112.167 343.631 108.894 342.053 105.986 340.75C105.935 341.675 105.906 342.563 105.878 343.443L105.878 343.444C105.844 344.521 105.81 345.587 105.734 346.694C104.899 362.846 105.048 377.763 106.043 391.469C107.371 409.495 110.256 425.372 114.708 438.746C118.44 449.891 123.339 459.287 129.245 466.98C129.621 467.478 129.99 467.991 130.361 468.507L130.362 468.508L130.362 468.508L130.362 468.508L130.363 468.508L130.363 468.509L130.363 468.509L130.363 468.509C131.201 469.673 132.048 470.85 132.999 471.895C135.518 474.639 138.242 477.062 141.126 479.234C159.532 493.259 185.046 495.305 214.886 485.601C194.008 464.031 178.144 434.117 164.179 407.689C150.993 382.495 138.471 358.788 126.429 351.678H126.441ZM186.595 331.686C223.384 342.934 245.819 375.843 269.512 410.741L269.489 410.764C286.201 435.34 303.256 460.373 325.874 478.697C308.224 489.727 291.993 495.351 277.365 495.351C263.938 495.351 252.114 490.619 241.469 482.8C238.195 480.411 235.071 477.736 232.037 474.833C226.703 469.792 221.678 463.997 216.928 457.71C208.24 446.142 200.377 432.905 192.96 419.44C189.763 413.598 186.646 407.725 183.575 401.939C182.962 400.785 182.352 399.634 181.742 398.487C177.919 391.217 174.199 384.359 170.559 377.797C162.822 363.898 155.267 351.713 147.049 343.254C147.234 343.127 147.512 342.983 147.754 342.858C147.795 342.837 147.834 342.816 147.873 342.797C155.53 337.653 167.938 332.052 186.595 331.686ZM489.243 14.2654C484.321 57.7251 456.346 87.285 431.485 105.46C427.593 104.934 423.679 104.637 419.695 104.637C416.365 104.637 413.011 104.843 409.691 105.254C417.784 75.1913 437.964 32.6346 489.243 14.2654ZM605.969 389.937C601.905 403.768 594.11 416.342 583.442 426.629C589.967 427.35 596.743 427.887 603.862 427.887C638.396 427.887 667.778 417.713 691.427 397.653C674.028 389.765 656.138 385.73 638.052 385.73C626.686 385.73 615.984 387.353 605.969 389.925V389.937ZM534.75 449.902C541.675 449.091 548.508 447.49 555.033 445.01H555.044C580.764 454.52 611.016 473.678 625.713 513C579.219 507.628 550.294 474.57 534.75 449.902ZM494.287 149.503C497.606 155.755 499.781 162.351 501.406 169.049C529.518 151.903 558.832 124.492 569.809 81.9471C529.141 89.2399 501.979 111.095 483.928 134.494C487.843 139.067 491.402 144.005 494.298 149.503H494.287ZM644.378 269.731C659.487 269.731 674.711 272.44 689.82 277.812L689.831 277.824C665.565 302.72 633.435 316.163 594.255 318.083C591.027 313.431 587.307 309.27 583.266 305.429C583.596 304.698 583.932 303.972 584.268 303.246C585.606 300.35 586.939 297.467 587.89 294.387C589.101 290.504 589.741 286.546 590.376 282.614C590.444 282.194 590.512 281.775 590.58 281.356C606.239 274.646 624.278 269.731 644.378 269.731Z" fill="#E1D9CE"/>
        <path fill-rule="evenodd" clip-rule="evenodd" d="M451.465 374.745C464.548 394.029 478.742 413.644 494 433.465L493.988 433.476C497.708 438.277 501.509 443.124 505.377 447.959C516.972 462.568 529.06 477.29 541.811 492.173C523.68 492.653 506.968 488.904 491.31 482.229C489.33 481.394 487.384 480.548 485.472 479.634L484.053 478.856C477.414 475.576 470.924 471.872 464.686 467.597C455.506 461.276 446.749 453.995 438.279 446.05C411.151 420.525 387.492 387.891 365.286 357.085C346.331 330.84 328.681 306.561 310.573 288.432C303.842 281.768 297.135 275.732 290.198 271.023C281.499 265.079 272.571 260.838 263.185 258.826C263.211 258.573 263.261 258.323 263.31 258.077C263.349 257.879 263.389 257.683 263.414 257.489C269.996 197.923 315.186 139.912 338.765 113.393C340.482 125.064 342.84 136.917 345.633 148.874C346.835 154.075 348.185 159.333 349.582 164.614C351.413 171.358 353.359 178.148 355.534 184.984C360.593 201.055 366.637 217.321 373.573 233.839C376.183 240 378.816 246.184 381.677 252.402C383.875 257.214 386.107 262.061 388.476 266.896C403.105 297.119 420.778 327.971 441.335 359.565C442.124 360.75 442.915 361.942 443.711 363.14C446.253 366.968 448.832 370.853 451.465 374.745ZM254.735 277.744C286.097 281.219 316.819 323.547 349.281 368.619L349.269 368.607C378.435 409.038 409.992 452.634 449.081 481.028C433.594 484.972 419.206 487.052 406.158 487.052C388.713 487.052 374.108 483.349 361.128 477.291C357.831 475.77 354.581 474.25 351.513 472.398C348.56 470.615 345.813 468.626 343.043 466.569C320.39 449.971 303.29 425.395 285.857 399.699C272.27 379.638 258.352 359.268 241.297 342.774C234.772 336.464 227.756 330.828 220.121 325.948C214.363 322.198 208.366 318.758 201.773 316.094C202.152 315.427 202.562 314.82 202.964 314.225C203.263 313.781 203.559 313.344 203.833 312.894C216.893 291.735 233.673 280.122 254.735 277.744Z" fill="#E1D9CE"/>
    </g>
</svg>
