<svg width="124" height="34" viewBox="0 0 124 34" fill="none" xmlns="http://www.w3.org/2000/svg">
<path d="M33.8965 33.793V0.0818787H0.128662V33.7497L33.8965 33.793ZM1.51757 1.46667C3.1235 1.46667 30.9451 1.46667 32.551 1.46667C32.551 3.06784 32.551 30.807 32.551 32.4082H1.51757V1.46667Z" fill="#FD000D"/>
<path d="M30.1638 4.36612H17.5334L9.80762 16.9158L17.5334 29.5088H30.1638L22.438 16.9158L30.1638 4.36612Z" fill="#FD000D"/>
<path d="M44.0095 4.36612H50.8239C56.0757 4.36612 59.6781 6.05384 59.6781 10.6842C59.6781 14.1462 57.6382 15.8772 54.4697 16.6562V16.7427C57.8986 17.0457 60.3292 19.2527 60.3292 22.8012C60.3292 28.2106 55.8586 29.5088 50.737 29.5088H44.0095V4.36612ZM47.612 15.0983H49.6086C53.1242 15.0983 56.0757 14.7954 56.0757 11.0737C56.0757 8.08776 53.5149 7.35208 51.4315 7.35208H47.612V15.0983ZM47.612 26.5228H50.303C53.5583 26.5228 56.4663 25.8304 56.4663 22.455C56.4663 18.5603 53.0374 18.041 49.9124 18.041H47.612V26.5228Z" fill="#313A3D"/>
<path d="M65.7114 4.36612H69.3139V26.3065H79.3401V29.4655H65.7114V4.36612Z" fill="#313A3D"/>
<path d="M83.0725 4.36612H86.675V15.4012L97.439 4.36612H102.257L90.4077 16.2234L103.168 29.4655H97.9165L86.675 17.1755V29.4655H83.0725V4.36612Z" fill="#313A3D"/>
<path d="M106.858 4.36612H113.672C118.924 4.36612 122.526 6.05384 122.526 10.6842C122.526 14.1462 120.486 15.8772 117.318 16.6562V16.7427C120.747 17.0457 123.177 19.2527 123.177 22.8012C123.177 28.2106 118.707 29.5088 113.585 29.5088H106.858V4.36612ZM110.46 15.0983H112.457C115.972 15.0983 118.924 14.7954 118.924 11.0737C118.924 8.08776 116.363 7.35208 114.28 7.35208H110.504V15.0983H110.46ZM110.46 26.5228H113.151C116.406 26.5228 119.314 25.8305 119.314 22.455C119.314 18.5603 115.886 18.041 112.761 18.041H110.417V26.5228H110.46Z" fill="#313A3D"/>
</svg>
