<svg viewBox="0 0 32 25" fill="none" xmlns="http://www.w3.org/2000/svg">
<path fill-rule="evenodd" clip-rule="evenodd" d="M20.6718 9.38081C20.7095 9.3572 20.7452 9.33143 20.781 9.30565C20.8356 9.26632 20.8903 9.22694 20.9519 9.19506C21.0374 9.15066 21.1253 9.11317 21.2134 9.0756L21.2758 9.04889C21.6155 8.90431 21.9701 8.80088 22.3342 8.74442C22.276 8.53123 22.2021 8.32227 22.0964 8.12333C22.0346 8.00619 21.9643 7.89643 21.8903 7.78984C21.7952 7.6558 21.6874 7.53338 21.5743 7.41887C21.4686 7.31228 21.354 7.21519 21.234 7.12601C20.9339 6.90438 20.5936 6.73552 20.2274 6.63895C19.9981 6.5788 19.7593 6.54397 19.5162 6.54133C19.5061 6.54133 19.4964 6.54026 19.4867 6.5392C19.4772 6.53815 19.4678 6.53711 19.4581 6.53711C19.0639 6.53711 18.6787 6.63631 18.3146 6.78776C18.3015 6.79298 18.2883 6.79749 18.275 6.80198C18.2562 6.80838 18.2375 6.81475 18.2195 6.82312C18.1984 6.83251 18.1765 6.83981 18.1546 6.84712C18.1248 6.85706 18.095 6.86701 18.0673 6.88222C18.0074 6.9129 17.9554 6.95047 17.9027 6.98855C17.8811 7.00418 17.8594 7.01989 17.8369 7.03524C17.6203 7.17666 17.4248 7.33866 17.2567 7.52335C17.168 7.62256 17.0898 7.72651 17.0137 7.83469C17.0161 7.83947 17.0167 7.84426 17.0172 7.84786L17.0174 7.84894C17.0566 8.00572 17.0991 8.16412 17.1416 8.32272L17.1416 8.32272L17.16 8.3914C17.5257 9.68581 18.0287 11.0172 18.6713 12.3828H18.6739C18.834 11.4087 19.3143 10.5043 20.0678 9.82459C20.2538 9.65995 20.4557 9.51537 20.6702 9.37975L20.6718 9.38081ZM25.9535 16.3458C25.6851 16.5859 25.3987 16.8064 25.0721 16.9763C24.4391 17.3125 23.7284 17.4882 23.014 17.4882C22.4539 17.4882 21.9149 17.3774 21.4129 17.1821V17.189C22.0243 18.1103 22.6933 19.0465 23.4156 19.9942C23.4687 20.0635 23.5232 20.1335 23.578 20.2038C23.6225 20.2609 23.6672 20.3182 23.7115 20.3757L23.7749 20.4548C23.8029 20.4918 23.8309 20.5287 23.8595 20.5646C23.8827 20.5936 23.9049 20.6227 23.9281 20.6543C23.9606 20.6583 23.9943 20.6594 24.0276 20.6604C24.0468 20.661 24.0659 20.6616 24.0846 20.6628L24.1251 20.6669C24.1951 20.6742 24.2631 20.6812 24.3345 20.6812C24.5139 20.6812 24.6922 20.6482 24.8686 20.6156L24.8787 20.6137L24.9269 20.6048C24.9942 20.5925 25.0596 20.5805 25.1271 20.563C25.3067 20.5124 25.4838 20.4469 25.6539 20.3625C25.6652 20.3568 25.6773 20.3528 25.6894 20.3489L25.6894 20.3489L25.6894 20.3489C25.7018 20.3449 25.714 20.3409 25.7252 20.3351C25.7401 20.3271 25.7538 20.317 25.7676 20.3069C25.7812 20.2968 25.7948 20.2867 25.8098 20.2786C26.2737 20.0126 26.6394 19.6401 26.8941 19.2048C27.0072 19.0132 27.1028 18.8122 27.1688 18.6006C27.2249 18.4296 27.2608 18.2502 27.2851 18.0687C27.3538 17.5135 27.2661 16.9373 27.005 16.4012C26.9987 16.388 26.9938 16.3744 26.9889 16.3608L26.9889 16.3608C26.9829 16.344 26.9768 16.3272 26.9681 16.3115C26.8994 16.1795 26.8201 16.0582 26.734 15.941C26.6743 15.8577 26.6072 15.7801 26.5385 15.7051C26.5188 15.7318 26.5004 15.7593 26.482 15.7867L26.482 15.7867L26.482 15.7868C26.4508 15.8333 26.4197 15.8797 26.3831 15.9215C26.2536 16.0756 26.1046 16.2117 25.9551 16.3447L25.9535 16.3458ZM23.3123 9.6152C23.319 9.61558 23.3255 9.61595 23.332 9.61656H23.3331C24.5035 9.72632 25.5445 10.406 26.1019 11.4571C26.3852 11.9933 26.5051 12.579 26.4908 13.17C26.4861 13.3526 26.466 13.5378 26.4311 13.7204C26.4266 13.7465 26.4222 13.7726 26.4179 13.7987C26.4001 13.9055 26.3825 14.0118 26.3498 14.1161C26.3368 14.1611 26.3175 14.2023 26.2982 14.2437C26.2844 14.2733 26.2705 14.3029 26.2589 14.3341C26.2575 14.3375 26.2561 14.3405 26.2547 14.3435C26.2524 14.3483 26.2503 14.353 26.2483 14.3589C26.2378 14.3854 26.2275 14.412 26.2172 14.4386C26.1747 14.5485 26.1322 14.6581 26.076 14.761C26.0104 14.8815 25.9284 14.9923 25.8483 15.1007C25.8407 15.1109 25.8331 15.1212 25.8256 15.1314C25.7622 15.2201 25.7009 15.3055 25.6301 15.3879C25.5054 15.5282 25.3749 15.6638 25.2285 15.7836C25.0631 15.9166 24.8808 16.0364 24.6906 16.1403C24.6819 16.145 24.6743 16.1507 24.6668 16.1562C24.6592 16.1619 24.6516 16.1675 24.643 16.172C24.1394 16.4369 23.5756 16.5783 23.0113 16.5783C22.5516 16.5783 22.1077 16.4844 21.6956 16.3182C21.555 16.2596 21.4187 16.1942 21.2855 16.1203C21.1519 16.0432 21.0245 15.9599 20.9019 15.8659C20.5014 15.5641 20.1632 15.1773 19.9191 14.7198C19.6945 14.294 19.5682 13.8454 19.5281 13.3943C19.5164 13.2524 19.5239 13.1096 19.5314 12.9679C19.532 12.9553 19.5327 12.9426 19.5334 12.9299C19.5402 12.7748 19.5577 12.6244 19.5841 12.474C19.7056 11.8091 20.0137 11.1901 20.4877 10.6904C20.7423 10.4213 21.0314 10.1807 21.3764 9.99755C21.4784 9.9432 21.5851 9.89835 21.6935 9.85508L21.843 9.79809C22.0332 9.73054 22.2266 9.682 22.4243 9.64928C22.5748 9.62448 22.7254 9.60707 22.8776 9.60179C22.8886 9.6011 22.8998 9.60031 22.911 9.59951C22.9429 9.59724 22.9753 9.59493 23.0066 9.59493C23.0752 9.59493 23.1415 9.60068 23.2081 9.60645C23.2317 9.60849 23.2554 9.61055 23.2792 9.61234C23.2906 9.61397 23.3016 9.61459 23.3123 9.6152Z" fill="#DD8217"/>
<path fill-rule="evenodd" clip-rule="evenodd" d="M17.8883 0.795898C18.7829 2.83013 18.1747 4.84483 17.528 6.15349V6.15296C17.3039 6.28119 17.0963 6.42894 16.9076 6.59253C16.4712 5.24429 16.1182 2.88553 17.8883 0.795898ZM2.72933 10.8214C2.68283 10.8034 2.62893 10.7939 2.56975 10.7939C2.06354 10.7939 1.21598 11.4287 0.641078 12.6049C0.220469 13.4651 -0.4617 15.532 0.836588 18.1245C0.997222 16.8016 1.69366 15.2697 2.94228 13.4946C3.24664 11.6187 2.97239 10.9211 2.7288 10.8219L2.72933 10.8214ZM4.11267 15.8483L4.12746 15.6795C3.96894 15.2584 3.81042 14.9275 3.64767 14.6536C3.58162 14.5465 3.51557 14.4426 3.44952 14.3539C3.36027 14.4842 3.28103 14.6127 3.20191 14.741L3.20191 14.741L3.2018 14.7411C3.1765 14.7822 3.15121 14.8232 3.12561 14.8642C2.69126 15.5555 2.35044 16.2045 2.11794 16.805C2.04291 17.0462 1.95942 17.301 1.87382 17.5586C1.7079 18.1949 1.66246 18.7691 1.75387 19.2815C1.78558 19.4588 1.83314 19.6318 1.8976 19.797C1.91249 19.837 1.93357 19.8763 1.95461 19.9155L1.95463 19.9156C1.96494 19.9348 1.97523 19.954 1.98479 19.9732C2.41068 20.8608 3.34912 21.5574 4.79589 22.0492C4.10368 20.598 3.87013 18.5242 4.11267 15.8489V15.8483ZM5.53711 16.8068L5.91756 17.031H5.91703C6.47291 17.3593 7.05099 18.4537 7.65971 19.6167C8.30436 20.8367 9.03673 22.2177 10.0005 23.2134C8.62299 23.6614 7.44518 23.5669 6.5955 22.9195C6.46235 22.8192 6.33659 22.7073 6.22034 22.5807C6.1764 22.5324 6.13728 22.4781 6.09859 22.4243C6.08144 22.4005 6.06438 22.3768 6.04702 22.3538C5.77436 21.9987 5.54821 21.5649 5.37595 21.0504C5.1704 20.433 5.03724 19.7001 4.97595 18.8679C4.92998 18.2352 4.92311 17.5466 4.96168 16.801C4.96517 16.7498 4.96674 16.7006 4.96833 16.6509V16.6509C4.96962 16.6103 4.97093 16.5693 4.9733 16.5266C5.10752 16.5867 5.25864 16.6595 5.41399 16.7398C5.42973 16.7481 5.44625 16.7573 5.4631 16.7667L5.46321 16.7668L5.46322 16.7668L5.46323 16.7668L5.46324 16.7668L5.46325 16.7668L5.46326 16.7668L5.46327 16.7668C5.48768 16.7804 5.51276 16.7943 5.53711 16.8068ZM12.5243 19.7575C11.4305 18.1465 10.3948 16.6273 8.6965 16.108C7.8352 16.1249 7.26241 16.3835 6.90891 16.6209L6.90345 16.6238L6.90342 16.6238C6.89228 16.6295 6.87945 16.6362 6.87086 16.642C7.25026 17.0325 7.599 17.595 7.9562 18.2367C8.12424 18.5396 8.29597 18.8562 8.47246 19.1918L8.55707 19.3512L8.55717 19.3514C8.69889 19.6184 8.84276 19.8895 8.99029 20.1591C9.3327 20.7807 9.69571 21.3917 10.0968 21.9258C10.3161 22.216 10.548 22.4835 10.7943 22.7162C10.9343 22.8503 11.0785 22.9737 11.2297 23.084C11.7211 23.445 12.2669 23.6634 12.8867 23.6634C13.562 23.6634 14.3113 23.4038 15.1261 22.8946C14.082 22.0487 13.2947 20.8931 12.5232 19.7586L12.5243 19.7575ZM20.0026 5.66475C21.1503 4.82573 22.4417 3.46113 22.6689 1.45487C20.3016 2.30286 19.3701 4.26743 18.9965 5.65525C19.1497 5.63625 19.3045 5.62675 19.4583 5.62675C19.6422 5.62675 19.8229 5.64047 20.0026 5.66475ZM27.0152 20.4911C27.5077 20.0162 27.8675 19.4357 28.0551 18.7972V18.7967C28.5175 18.678 29.0115 18.603 29.5362 18.603C30.3711 18.603 31.197 18.7893 32.0002 19.1534C30.9085 20.0795 29.5521 20.5491 27.9579 20.5491C27.6292 20.5491 27.3164 20.5243 27.0152 20.4911ZM25.7031 21.3395C25.4019 21.454 25.0864 21.5279 24.7667 21.5653C25.4843 22.7041 26.8196 24.2302 28.9659 24.4782C28.2875 22.6629 26.8909 21.7785 25.7036 21.3395H25.7031ZM23.2276 8.60003C23.1525 8.2908 23.0521 7.98633 22.8989 7.69768H22.8994C22.7657 7.44387 22.6014 7.21591 22.4207 7.00483C23.254 5.92466 24.5079 4.91572 26.3853 4.57906C25.8786 6.54311 24.5253 7.8085 23.2276 8.60003ZM31.9287 13.6207C31.2312 13.3727 30.5284 13.2476 29.8309 13.2476C28.9031 13.2476 28.0703 13.4745 27.3475 13.7843L27.338 13.8423C27.3087 14.0238 27.2791 14.2066 27.2233 14.3858C27.1793 14.528 27.1178 14.6611 27.0561 14.7948L27.056 14.7948C27.0406 14.8283 27.0251 14.8619 27.0098 14.8956C27.1963 15.0729 27.3681 15.265 27.5171 15.4797C29.3258 15.3911 30.809 14.7705 31.9292 13.6212L31.9287 13.6207ZM22.8838 20.806C22.1794 19.891 21.5242 18.9855 20.9202 18.0953C20.7987 17.9156 20.6796 17.7363 20.5623 17.5596L20.4526 17.3945C19.5036 15.936 18.6877 14.5118 18.0124 13.1166C17.9031 12.8934 17.8 12.6696 17.6986 12.4475C17.5665 12.1604 17.4449 11.8749 17.3244 11.5905C17.0042 10.828 16.7252 10.0771 16.4917 9.33518C16.3913 9.01962 16.3015 8.70617 16.2169 8.39484C16.1525 8.15105 16.0901 7.90831 16.0346 7.66822C15.9057 7.11626 15.7968 6.56905 15.7176 6.03028C14.6291 7.25451 12.5429 9.93252 12.2391 12.6823C12.2379 12.6912 12.2361 12.7003 12.2343 12.7094C12.232 12.7208 12.2297 12.7323 12.2285 12.744C12.6618 12.8369 13.074 13.0327 13.4756 13.3071C13.7958 13.5245 14.1054 13.8031 14.4161 14.1107C15.2521 14.9476 16.0668 16.0684 16.9419 17.28C17.967 18.7021 19.0592 20.2087 20.3115 21.387C20.7025 21.7537 21.1068 22.0899 21.5305 22.3817C21.8185 22.579 22.1181 22.75 22.4246 22.9014L22.4901 22.9373C22.5784 22.9795 22.6682 23.0186 22.7596 23.0571C23.4825 23.3653 24.2539 23.5384 25.0909 23.5162C24.5023 22.8292 23.9443 22.1495 23.409 21.4751C23.2304 21.2519 23.055 21.0282 22.8833 20.8065L22.8838 20.806ZM16.2044 17.8124C14.7059 15.7317 13.2876 13.7777 11.8398 13.6173C10.8675 13.727 10.0929 14.2631 9.48999 15.2399C9.47733 15.2607 9.46371 15.2809 9.44986 15.3014C9.43134 15.3288 9.41242 15.3568 9.39488 15.3876C9.69924 15.5106 9.97612 15.6694 10.2419 15.8425C10.5944 16.0678 10.9183 16.328 11.2195 16.6193C12.0068 17.3807 12.6493 18.3211 13.2765 19.2471C14.0813 20.4334 14.8707 21.5679 15.9164 22.3341C16.0443 22.4291 16.1711 22.5209 16.3075 22.6032C16.4491 22.6887 16.5991 22.7589 16.7513 22.8291C17.3505 23.1087 18.0248 23.2797 18.8301 23.2797C19.4324 23.2797 20.0966 23.1837 20.8116 23.0016C19.0071 21.6909 17.5503 19.6783 16.2039 17.8118L16.2044 17.8124Z" fill="#211C17"/>
</svg>
