<svg viewBox="0 0 208 35" fill="none" xmlns="http://www.w3.org/2000/svg">
<path fill-rule="evenodd" clip-rule="evenodd" d="M29.6908 12.3785C29.7451 12.3445 29.7967 12.3073 29.8483 12.2701C29.927 12.2134 30.0058 12.1566 30.0946 12.1107C30.2179 12.0467 30.3447 11.9926 30.4717 11.9384L30.4717 11.9384L30.5617 11.8999C31.0516 11.6914 31.5629 11.5423 32.0878 11.4609C32.004 11.1535 31.8974 10.8522 31.745 10.5653C31.6558 10.3964 31.5545 10.2381 31.4478 10.0844C31.3107 9.89116 31.1552 9.71463 30.9922 9.54952C30.8398 9.39582 30.6745 9.25582 30.5015 9.12723C30.0687 8.80765 29.5781 8.56417 29.05 8.42493C28.7194 8.33819 28.375 8.28797 28.0245 8.28416C28.0099 8.28416 27.9959 8.28262 27.982 8.28109L27.982 8.28109C27.9683 8.27958 27.9547 8.27808 27.9407 8.27808C27.3723 8.27808 26.8168 8.42112 26.2919 8.6395C26.273 8.64703 26.2539 8.65353 26.2348 8.66001L26.2348 8.66001C26.2077 8.66923 26.1807 8.67841 26.1547 8.69048C26.1244 8.70402 26.0928 8.71456 26.0612 8.7251C26.0182 8.73943 25.9752 8.75377 25.9353 8.7757C25.8489 8.81994 25.7739 8.87412 25.698 8.92903C25.6668 8.95156 25.6355 8.97422 25.6031 8.99636C25.2907 9.20027 25.0088 9.43387 24.7665 9.70018C24.6385 9.84323 24.5257 9.99312 24.416 10.1491C24.4195 10.156 24.4204 10.1629 24.4211 10.1681L24.4213 10.1696C24.4779 10.3957 24.5392 10.6241 24.6005 10.8528L24.6271 10.9518C25.1543 12.8183 25.8797 14.738 26.8062 16.7072H26.81C27.0408 15.3026 27.7334 13.9984 28.8199 13.0184C29.0881 12.781 29.3792 12.5725 29.6885 12.377L29.6908 12.3785ZM37.3042 22.4215C36.9172 22.7677 36.5042 23.0857 36.0334 23.3307C35.1206 23.8154 34.0958 24.0688 33.0657 24.0688C32.258 24.0688 31.4809 23.909 30.757 23.6275V23.6374C31.6386 24.9659 32.6032 26.3157 33.6447 27.6822C33.7212 27.7821 33.7998 27.883 33.8788 27.9843L33.879 27.9846C33.9432 28.0669 34.0076 28.1496 34.0714 28.2324L34.1628 28.3465C34.2032 28.3998 34.2436 28.453 34.2847 28.5048C34.3183 28.5466 34.3503 28.5885 34.3838 28.6341C34.4306 28.6399 34.4792 28.6414 34.5272 28.6429C34.5549 28.6438 34.5825 28.6446 34.6093 28.6463L34.6679 28.6523H34.6679C34.7688 28.6627 34.8668 28.6729 34.9697 28.6729C35.2284 28.6729 35.4856 28.6253 35.7398 28.5782L35.7545 28.5755L35.824 28.5627L35.8241 28.5627C35.921 28.545 36.0153 28.5277 36.1126 28.5025C36.3717 28.4294 36.6269 28.3351 36.8722 28.2133C36.8885 28.2051 36.906 28.1994 36.9234 28.1937C36.9412 28.188 36.9589 28.1822 36.9751 28.1738C36.9966 28.1623 37.0163 28.1477 37.0361 28.1331C37.0557 28.1186 37.0754 28.1041 37.097 28.0924C37.766 27.7089 38.2932 27.1717 38.6605 26.544C38.8235 26.2677 38.9614 25.9778 39.0567 25.6727C39.1374 25.4262 39.1892 25.1675 39.2243 24.9058C39.3233 24.1053 39.1969 23.2744 38.8205 22.5013C38.8113 22.4823 38.8042 22.4627 38.7972 22.4432C38.7885 22.4189 38.7798 22.3947 38.7671 22.372C38.6681 22.1818 38.5538 22.0068 38.4296 21.8379C38.3435 21.7176 38.2467 21.6058 38.1477 21.4977C38.1194 21.5361 38.0929 21.5758 38.0663 21.6153L38.0663 21.6154L38.0663 21.6154C38.0213 21.6825 37.9764 21.7494 37.9237 21.8097C37.737 22.0319 37.5222 22.2282 37.3065 22.4199L37.3042 22.4215ZM33.5004 12.7167C33.51 12.7172 33.5195 12.7177 33.5289 12.7186H33.5304C35.2181 12.8769 36.7191 13.8569 37.5229 15.3726C37.9313 16.1457 38.1043 16.9903 38.0837 17.8425C38.0768 18.1057 38.0479 18.3728 37.9976 18.6361C37.991 18.6737 37.9848 18.7114 37.9785 18.749C37.9529 18.903 37.9274 19.0563 37.8803 19.2067C37.8616 19.2716 37.8338 19.331 37.8059 19.3907C37.786 19.4333 37.766 19.476 37.7492 19.521C37.7472 19.5259 37.7452 19.5303 37.7432 19.5345C37.7399 19.5415 37.7368 19.5482 37.734 19.5567C37.7188 19.595 37.704 19.6333 37.6891 19.6717C37.6278 19.8301 37.5666 19.9883 37.4856 20.1365C37.3909 20.3103 37.2728 20.4701 37.1572 20.6263C37.1462 20.6411 37.1353 20.6559 37.1244 20.6707C37.033 20.7985 36.9446 20.9218 36.8425 21.0405C36.6627 21.2429 36.4745 21.4384 36.2635 21.6111C36.025 21.8029 35.7621 21.9756 35.4878 22.1255C35.4754 22.1323 35.4644 22.1404 35.4536 22.1484C35.4425 22.1565 35.4316 22.1646 35.4192 22.1711C34.6931 22.5531 33.8802 22.757 33.0664 22.757C32.4036 22.757 31.7635 22.6216 31.1692 22.3819C30.9666 22.2975 30.77 22.2031 30.578 22.0966C30.3852 21.9855 30.2016 21.8653 30.0248 21.7298C29.4473 21.2946 28.9597 20.7369 28.6076 20.0772C28.2838 19.4631 28.1017 18.8164 28.0438 18.1658C28.027 17.9612 28.0379 17.7553 28.0486 17.5511C28.0495 17.5328 28.0505 17.5145 28.0514 17.4962C28.0613 17.2725 28.0865 17.0557 28.1246 16.8388C28.2998 15.8801 28.744 14.9876 29.4275 14.267C29.7947 13.879 30.2115 13.532 30.709 13.268C30.8561 13.1896 31.01 13.1249 31.1662 13.0625L31.3818 12.9804C31.6561 12.883 31.935 12.813 32.2199 12.7658C32.4371 12.73 32.6542 12.7049 32.8737 12.6973C32.8895 12.6963 32.9056 12.6952 32.9218 12.694C32.9677 12.6908 33.0145 12.6874 33.0596 12.6874C33.1585 12.6874 33.2542 12.6957 33.3502 12.704C33.3843 12.707 33.4184 12.7099 33.4527 12.7125C33.4691 12.7149 33.485 12.7158 33.5004 12.7167Z" fill="#DD8217"/>
<path fill-rule="evenodd" clip-rule="evenodd" d="M25.6747 0C26.9646 2.93323 26.0877 5.8383 25.1551 7.72531V7.72454C24.832 7.90944 24.5326 8.12249 24.2606 8.35837C23.6312 6.41429 23.1222 3.01312 25.6747 0ZM3.81723 14.4558C3.75019 14.43 3.67247 14.4163 3.58713 14.4163C2.85721 14.4163 1.63508 15.3316 0.80611 17.0277C0.199619 18.2679 -0.784025 21.2483 1.08802 24.9866C1.31965 23.079 2.32386 20.8701 4.12429 18.3105C4.56316 15.6056 4.16772 14.5997 3.81647 14.4566L3.81723 14.4558ZM5.81429 21.7048L5.83563 21.4613C5.60705 20.8542 5.37847 20.3771 5.1438 19.9822C5.04856 19.8277 4.95332 19.6778 4.85808 19.55C4.72939 19.7379 4.61513 19.9231 4.50106 20.108L4.50104 20.1081C4.4645 20.1673 4.42798 20.2265 4.39102 20.2858C3.76472 21.2825 3.27327 22.2184 2.93803 23.0843C2.82983 23.432 2.70945 23.7996 2.58602 24.1709C2.34677 25.0885 2.28125 25.9163 2.41306 26.6552C2.45878 26.9108 2.52735 27.1604 2.62031 27.3986C2.64178 27.4563 2.67217 27.5129 2.70251 27.5695C2.71738 27.5972 2.73224 27.6249 2.74602 27.6527C3.36013 28.9325 4.71331 29.9369 6.79946 30.646C5.80134 28.5536 5.46457 25.5633 5.81429 21.7056V21.7048ZM7.867 23.0866L8.41558 23.41H8.41482C9.21637 23.8832 10.0499 25.4613 10.9276 27.1383C11.8572 28.8975 12.9132 30.8887 14.303 32.3245C12.3166 32.9705 10.6183 32.8343 9.39313 31.9007C9.20113 31.7562 9.01979 31.5948 8.85217 31.4122C8.78881 31.3426 8.7324 31.2643 8.67661 31.1867C8.65189 31.1524 8.62729 31.1182 8.60226 31.085C8.2091 30.573 7.883 29.9475 7.63461 29.2057C7.33822 28.3154 7.14622 27.2585 7.05784 26.0586C6.99155 25.1463 6.98164 24.1533 7.03726 23.0782C7.0423 23.0045 7.04456 22.9336 7.04685 22.8618C7.04871 22.8032 7.0506 22.7441 7.05403 22.6826C7.24755 22.7693 7.46546 22.8743 7.68947 22.99C7.71214 23.002 7.73595 23.0153 7.76023 23.0288L7.76042 23.0289L7.76054 23.0289C7.79573 23.0485 7.8319 23.0686 7.867 23.0866ZM17.9392 27.3412C16.362 25.0182 14.8686 22.8276 12.4198 22.0789C11.1779 22.1033 10.3519 22.4761 9.84221 22.8185L9.83432 22.8226C9.81825 22.8309 9.79974 22.8405 9.78735 22.8489C10.3344 23.412 10.8373 24.2231 11.3523 25.1484C11.5946 25.5851 11.8423 26.0416 12.0967 26.5256L12.2189 26.7556L12.219 26.7558L12.2193 26.7564L12.2196 26.757C12.4237 27.1416 12.6309 27.532 12.8434 27.9203C13.3372 28.8166 13.8606 29.6977 14.4389 30.4677C14.7551 30.8862 15.0896 31.272 15.4446 31.6075C15.6465 31.8008 15.8546 31.9789 16.0725 32.1379C16.7811 32.6583 17.5681 32.9733 18.4619 32.9733C19.4356 32.9733 20.516 32.599 21.6909 31.8647C20.1853 30.645 19.0501 28.9787 17.9377 27.3428L17.9392 27.3412ZM28.7207 7.02033C30.3756 5.81052 32.2378 3.84286 32.5654 0.949959C29.152 2.17271 27.8087 5.0055 27.27 7.00664C27.491 6.97924 27.7142 6.96555 27.9359 6.96555C28.2011 6.96555 28.4617 6.98533 28.7207 7.02033ZM38.8349 28.3991C39.545 27.7143 40.0639 26.8773 40.3344 25.9567V25.9559C41.001 25.7847 41.7134 25.6766 42.47 25.6766C43.6739 25.6766 44.8648 25.9452 46.0229 26.4703C44.4488 27.8056 42.4929 28.4828 40.1942 28.4828C39.7203 28.4828 39.2692 28.447 38.8349 28.3991ZM36.9451 29.6224C36.5108 29.7875 36.056 29.894 35.595 29.9481C36.6297 31.5901 38.5551 33.7905 41.65 34.1482C40.6717 31.5307 38.658 30.2555 36.9459 29.6224H36.9451ZM33.3764 11.253C33.2682 10.8071 33.1234 10.368 32.9025 9.95184H32.9032C32.7105 9.58585 32.4735 9.25715 32.2129 8.95279C33.4145 7.39525 35.2225 5.94043 37.9297 5.45498C37.199 8.28701 35.2477 10.1116 33.3764 11.253ZM45.9175 18.4927C44.9118 18.1351 43.8984 17.9548 42.8927 17.9548C41.5547 17.9548 40.3539 18.2819 39.3116 18.7286L39.298 18.8123L39.298 18.8124C39.2557 19.0741 39.2131 19.3375 39.1326 19.596C39.0692 19.801 38.9805 19.9929 38.8914 20.1857L38.8914 20.1857C38.8691 20.234 38.8467 20.2824 38.8247 20.331C39.0937 20.5867 39.3413 20.8636 39.5562 21.1733C42.1643 21.0455 44.303 20.1507 45.9183 18.4935L45.9175 18.4927ZM32.8766 28.8537C31.8609 27.5344 30.9161 26.2287 30.0452 24.945C29.87 24.6859 29.6982 24.4273 29.529 24.1724L29.3709 23.9346C28.0025 21.8315 26.8261 19.7779 25.8524 17.7661C25.6947 17.4442 25.5461 17.1216 25.3998 16.8013C25.2093 16.3873 25.0341 15.9757 24.8604 15.5656C24.3986 14.4661 23.9963 13.3833 23.6596 12.3135C23.5148 11.8585 23.3853 11.4066 23.2634 10.9576C23.1704 10.6061 23.0805 10.2561 23.0005 9.90988C22.8146 9.11399 22.6576 8.32495 22.5433 7.54808C20.9738 9.31334 17.9657 13.1749 17.5276 17.1398C17.5259 17.1527 17.5233 17.1658 17.5206 17.179C17.5174 17.1954 17.514 17.212 17.5124 17.2289C18.1371 17.3628 18.7314 17.6451 19.3105 18.0407C19.7722 18.3542 20.2187 18.756 20.6667 19.1996C21.8721 20.4063 23.047 22.0225 24.3087 23.7695C25.7869 25.8201 27.3618 27.9924 29.1675 29.6915C29.7313 30.2203 30.3142 30.705 30.9253 31.1257C31.3405 31.4103 31.7725 31.6568 32.2144 31.8752L32.3089 31.927C32.4362 31.9878 32.5657 32.0441 32.6975 32.0997C33.7398 32.544 34.8522 32.7936 36.0591 32.7617C35.2103 31.771 34.4057 30.791 33.6339 29.8185C33.3764 29.4967 33.1234 29.1741 32.8758 28.8545L32.8766 28.8537ZM23.2484 24.5372C21.0876 21.5371 19.0426 18.7195 16.9549 18.4882C15.553 18.6464 14.436 19.4195 13.5666 20.8279C13.5484 20.8579 13.5287 20.887 13.5088 20.9166C13.4821 20.9561 13.4548 20.9966 13.4295 21.041C13.8684 21.2183 14.2676 21.4473 14.6509 21.6968C15.1591 22.0217 15.6261 22.3969 16.0604 22.8169C17.1957 23.9148 18.1222 25.2707 19.0266 26.6061C20.187 28.3166 21.3253 29.9525 22.8332 31.0573C23.0176 31.1943 23.2004 31.3267 23.397 31.4454C23.6012 31.5686 23.8176 31.6698 24.037 31.771C24.901 32.1743 25.8732 32.4208 27.0344 32.4208C27.903 32.4208 28.8608 32.2823 29.8916 32.0198C27.2897 30.1298 25.189 27.2278 23.2477 24.5365L23.2484 24.5372Z" fill="#211C17"/>
<path fill-rule="evenodd" clip-rule="evenodd" d="M171.48 31.2954V32.1339H178.935V31.2939L176.962 30.9728V9.45337L171.48 10.0012V10.9021L173.447 11.2582V30.9744L171.48 31.2954ZM106.556 24.9991C106.556 24.818 106.565 24.659 106.587 24.5327H115.938V23.9164C115.938 22.091 115.428 20.6613 114.408 19.6295C113.385 18.5993 111.932 18.0849 110.035 18.0849C109.028 18.0849 108.085 18.2599 107.214 18.6175C106.344 18.9706 105.585 19.4728 104.942 20.1165C104.297 20.7617 103.79 21.5241 103.425 22.403C103.059 23.2826 102.876 24.2519 102.876 25.302C102.876 26.3961 103.05 27.3914 103.391 28.2831C103.735 29.1734 104.221 29.9327 104.843 30.5506C105.468 31.176 106.208 31.6592 107.071 32.0039C107.931 32.344 108.877 32.5175 109.909 32.5175C111.2 32.5175 112.287 32.3105 113.166 31.8935C114.047 31.4705 114.888 30.8237 115.682 29.9457L114.876 29.0098C114.359 29.5683 113.78 30.037 113.135 30.4128C112.488 30.7887 111.682 30.9744 110.715 30.9744C110.094 30.9744 109.521 30.8268 109.006 30.5224C108.488 30.2219 108.048 29.8156 107.68 29.3012C107.318 28.7838 107.036 28.1926 106.843 27.526C106.652 26.861 106.556 26.1633 106.556 25.4305V24.9991ZM82.831 21.7774C82.831 21.7774 81.455 20.6763 80.3128 20.6763C78.7989 20.6763 78.1543 22.5443 78.1543 24.3408V30.9757L81.0694 31.2953V32.1346H72.6639V31.2961L74.7043 30.975V20.0844L72.5252 19.7306V18.8266L77.8968 18.2141V21.7294H77.9288C78.165 21.0218 78.4355 20.4283 78.7364 19.9565C79.0374 19.4833 79.365 19.1089 79.7193 18.8266C80.0744 18.5504 80.7525 18.0863 81.7887 18.0863C82.8249 18.0863 84.207 18.9613 84.207 18.9613L82.831 21.7766V21.7774ZM95.9901 32.3911V28.9762H95.9276C95.4552 30.2012 94.8046 31.0991 93.9809 31.6675C93.1542 32.2366 92.2056 32.5197 91.1351 32.5197C89.6799 32.5197 88.601 32.092 87.9046 31.2307C87.2066 30.374 86.8607 29.2106 86.8607 27.7512V19.7618L84.9635 19.3761V18.5376H90.3763V29.8139C90.7191 30.5018 91.3119 30.8427 92.1607 30.8427C92.8205 30.8427 93.3798 30.6958 93.8346 30.3953C94.2903 30.0924 94.6628 29.6952 94.9501 29.2022C95.235 28.7076 95.4423 28.1293 95.571 27.4597C95.6983 26.7947 95.7631 26.1054 95.7631 25.3993V19.6964L93.7059 19.3738V18.5383H99.2778V30.6821L101.246 31.0055V31.9049L95.9871 32.3918L95.9901 32.3911ZM112.225 21.8572C112.162 21.3413 112.033 20.8855 111.839 20.4876C111.644 20.0904 111.386 19.7632 111.062 19.5045C110.741 19.2443 110.323 19.1165 109.805 19.1165C109.31 19.1165 108.872 19.2458 108.499 19.5045C108.123 19.7632 107.809 20.0957 107.562 20.5059C107.317 20.9129 107.114 21.3679 106.966 21.8717C106.817 22.3776 106.72 22.8874 106.678 23.401H112.324C112.322 22.8882 112.29 22.3708 112.225 21.8564V21.8572ZM145.533 24.9991C145.533 24.818 145.544 24.659 145.565 24.5327H145.565H154.92V23.9164C154.92 22.091 154.408 20.6613 153.391 19.6295C152.368 18.5993 150.911 18.0849 149.018 18.0849C148.007 18.0849 147.066 18.2599 146.194 18.6175C145.325 18.9706 144.569 19.4728 143.921 20.1165C143.276 20.7617 142.769 21.5241 142.404 22.403C142.039 23.2826 141.856 24.2519 141.856 25.302C141.856 26.3961 142.029 27.3914 142.372 28.2831C142.717 29.1734 143.201 29.9327 143.828 30.5506C144.449 31.176 145.19 31.6592 146.049 32.0039C146.91 32.344 147.857 32.5175 148.891 32.5175C150.178 32.5175 151.266 32.3105 152.144 31.8935C153.029 31.4705 153.867 30.8237 154.664 29.9457L153.858 29.0098C153.339 29.5683 152.761 30.037 152.117 30.4128C151.469 30.7887 150.664 30.9744 149.697 30.9744C149.071 30.9744 148.504 30.8268 147.988 30.5224C147.47 30.2219 147.028 29.8156 146.662 29.3012C146.295 28.7838 146.017 28.1941 145.822 27.526C145.63 26.861 145.533 26.1633 145.533 25.4305V24.9991ZM151.212 21.8572C151.146 21.3413 151.016 20.8855 150.821 20.4876C150.628 20.0904 150.372 19.7632 150.049 19.5045C149.727 19.2443 149.308 19.1165 148.792 19.1165C148.296 19.1165 147.862 19.2458 147.483 19.5045C147.108 19.7632 146.797 20.0957 146.548 20.5059C146.302 20.9129 146.101 21.3679 145.95 21.8717C145.801 22.3776 145.704 22.8874 145.662 23.401H151.305C151.305 22.8882 151.277 22.3708 151.212 21.8564V21.8572ZM189.196 31.9423C188.52 32.3273 187.619 32.519 186.502 32.519C185.291 32.519 184.343 32.1561 183.659 31.4264C182.973 30.6959 182.632 29.7296 182.632 28.5259V19.8213H180.184V18.855L183.085 18.505L184.517 13.8826H186.148V18.5392H190.118V19.8936H186.148V27.9773C186.148 28.9223 186.329 30.7819 188.178 30.7819C188.608 30.7819 189.009 30.6883 189.372 30.508C189.738 30.3231 190.026 30.1519 190.306 29.8521L190.864 30.6206C190.479 31.1106 189.876 31.5534 189.197 31.9415L189.196 31.9423ZM200.58 31.2955V32.1355H208V31.2955L206.033 30.9774V22.8572C206.033 21.3963 205.685 20.2344 204.987 19.3769C204.287 18.5178 203.21 18.0872 201.742 18.0872C200.647 18.0872 199.721 18.3512 198.971 18.8762C198.22 19.3997 197.593 20.1796 197.1 21.2106L197.132 9.45337L191.648 10.0012V10.9021L193.616 11.2582V30.9759L191.647 31.3V32.137H199.068V31.3L197.129 30.9759V25.2738C197.129 24.5441 197.193 23.8456 197.321 23.1798C197.446 22.5156 197.651 21.9297 197.927 21.4252C198.204 20.9207 198.564 20.5152 199.013 20.2154C199.457 19.9125 200.008 19.7665 200.671 19.7665C201.159 19.7665 201.55 19.8578 201.848 20.0404C202.144 20.2199 202.368 20.4505 202.515 20.7297V30.9744L200.58 31.2955ZM137.929 11.3846V12.3547L140.398 12.7047L135.809 26.8215L131.22 12.704L133.583 12.3175V11.3846H125.04V12.3175L127.232 12.7032L128.65 16.7321L125.361 26.7211L120.631 12.7025L122.66 12.3525V11.3831H114.377V12.3532L116.611 12.7694L123.51 32.134H125.093L129.459 18.9554L133.992 32.134H135.574L142.099 12.7314L144.055 12.3167V11.3838L137.929 11.3846ZM167.576 32.5184C168.222 32.5184 168.81 32.3837 169.338 32.1189V32.1182C169.863 31.8504 170.313 31.4905 170.686 31.0377L170.24 30.3514C170.24 30.3514 170.03 30.4899 169.924 30.5416C169.761 30.6162 169.563 30.652 169.325 30.652C168.96 30.652 168.661 30.5287 168.425 30.2806C168.185 30.0356 168.067 29.5616 168.067 28.8502V22.3636C168.067 21.01 167.634 18.025 162.855 18.025C160.277 18.025 158.573 19.091 157.438 20.3807L158.478 21.3432C158.907 20.6988 160.175 19.5399 162.088 19.5399C164.256 19.5399 164.549 21.4186 164.549 22.1688V23.3444C164.549 23.3444 164.165 23.4235 161.785 23.8983C159.407 24.3731 157 25.6666 157 28.7406C157 30.0227 158.078 32.5222 160.746 32.5222C161.58 32.5222 162.444 32.3343 163.052 31.9614C163.665 31.5848 164.224 31.1268 164.742 30.5918C164.979 31.2135 165.338 31.6913 165.816 32.0238C166.294 32.3571 166.88 32.5184 167.576 32.5184ZM164.546 24.411L164.543 24.4114V24.411H164.546ZM164.543 24.4114V29.6535C164.265 29.9563 163.931 30.2059 163.536 30.3992C163.142 30.5894 162.751 30.6838 162.368 30.6838C161.15 30.6838 160.158 29.5424 160.158 27.9826C160.158 25.8978 161.383 25.1422 162.462 24.863C163.271 24.6537 164.484 24.4227 164.543 24.4114ZM72.6191 12.8037L73.0709 16.4126V16.4119H74.4165V11.3847H56.3528V16.4119H57.6999L58.1509 12.803H63.4829V30.7836L60.7719 31.167V32.1334H69.9981V31.167L67.2887 30.7836V12.8037H72.6191Z" fill="#211C17"/>
</svg>
