<svg viewBox="0 0 660.06 286.33" xmlns="http://www.w3.org/2000/svg"><g fill="#051478"><path d="m65.69 161.73c36.8 0 63.73-20.56 63.73-48.55 0-56.71-88.94-38.19-88.94-66.67 0-11.59 11.26-18.44 26.44-18.44 16.48 0 25.13 7.92 29.62 16.81l30.76-9.87c-8.25-21.95-30.77-35.01-58.35-35.01-36.88 0-61.12 22.28-61.12 49.2 0 54.75 88.29 34.6 88.29 65.85 0 11.02-12 18.36-29.46 18.36-18.36 0-30.44-10.12-35.5-25.62l-31.16 9.96c7.26 26.76 32.64 43.98 65.69 43.98m512.28-161.73c-46.1 0-81.93 36.39-81.93 80.87s35.82 80.87 81.93 80.87 82.09-36.39 82.09-80.87-35.98-80.87-82.09-80.87m0 29.46c27.42 0 48.23 21.46 48.23 51.41s-20.81 51.41-48.23 51.41-48.06-21.46-48.06-51.41 21.05-51.41 48.06-51.41m-327.46-27.01h-28.4l-66.75 156.84h34.19l13.55-32.88h65.69l13.46 32.72 21.46-31.66zm-36.15 96.7 21.54-52.96 21.62 52.96h-43.17zm167.77-21.38-55.49 81.52h36.31l37.29-55.57 37.29 55.57h37.29l-55.98-82.25 50.69-74.59h-36.23l-32.56 48.55-32.56-48.55h-37.21z"/><path d="m79.02 285.57v-50.44h19.31c3.65 0 6.68.57 9.1 1.71s4.24 2.7 5.44 4.67c1.21 1.97 1.81 4.2 1.81 6.7 0 2.05-.39 3.81-1.18 5.26s-1.85 2.63-3.18 3.53-2.82 1.55-4.46 1.95v.49c1.79.1 3.51.64 5.16 1.64 1.65.99 3 2.39 4.05 4.2s1.58 3.99 1.58 6.55-.63 4.95-1.9 7.03c-1.26 2.08-3.17 3.72-5.71 4.91-2.55 1.2-5.75 1.8-9.61 1.8h-20.42zm9.14-28.99h9.04c1.58 0 3-.29 4.26-.87s2.26-1.41 2.99-2.49c.73-1.07 1.1-2.35 1.1-3.83 0-1.95-.69-3.56-2.06-4.83-1.37-1.26-3.4-1.9-6.1-1.9h-9.24v13.92zm0 21.35h9.83c3.32 0 5.71-.64 7.18-1.91s2.2-2.91 2.2-4.91c0-1.49-.37-2.85-1.11-4.05-.74-1.21-1.79-2.16-3.15-2.86s-2.99-1.05-4.88-1.05h-10.07z"/><path d="m130.44 285.57v-50.44h32.81v7.65h-23.67v13.7h21.97v7.66h-21.97v13.77h23.87v7.66z"/><path d="m204.46 235.13h9.14v50.44h-9.14z"/><path d="m272.86 235.12v50.45h-7.9l-23.77-34.36h-.42v34.36h-9.13v-50.45h8.17l23.75 34.39h.44v-34.39z"/><path d="m294.57 235.12 13.13 39.71h.52l13.1-39.71h10.05l-17.78 50.45h-11.28l-17.76-50.45z"/><path d="m344.05 285.57v-50.44h32.81v7.65h-23.67v13.7h21.97v7.66h-21.97v13.77h23.87v7.66z"/><path d="m419.57 248.99c-.23-2.15-1.19-3.83-2.89-5.02-1.7-1.2-3.9-1.8-6.61-1.8-1.91 0-3.54.29-4.9.86-1.36.58-2.41 1.35-3.13 2.34s-1.09 2.11-1.11 3.37c0 1.05.24 1.96.73 2.73s1.14 1.42 1.98 1.96c.84.53 1.77.98 2.78 1.34 1.02.36 2.04.66 3.08.91l4.73 1.18c1.9.44 3.74 1.04 5.5 1.8 1.77.76 3.35 1.71 4.75 2.86s2.52 2.54 3.34 4.16c.82 1.63 1.23 3.53 1.23 5.71 0 2.96-.76 5.55-2.27 7.8-1.51 2.24-3.69 3.99-6.54 5.25s-6.29 1.88-10.33 1.88-7.33-.61-10.21-1.82-5.13-2.99-6.75-5.32-2.49-5.17-2.62-8.52h8.99c.13 1.76.67 3.22 1.63 4.39.95 1.17 2.2 2.04 3.73 2.61 1.53.58 3.26.86 5.16.86s3.73-.3 5.23-.9 2.68-1.44 3.53-2.51c.85-1.08 1.29-2.34 1.31-3.78-.02-1.31-.4-2.4-1.16-3.26s-1.81-1.58-3.16-2.17c-1.35-.58-2.94-1.1-4.74-1.56l-5.74-1.48c-4.16-1.07-7.43-2.69-9.84-4.86-2.41-2.18-3.61-5.07-3.61-8.68 0-2.97.81-5.57 2.43-7.81 1.62-2.23 3.82-3.97 6.61-5.21s5.95-1.86 9.48-1.86 6.72.62 9.42 1.86 4.82 2.96 6.37 5.15c1.54 2.19 2.34 4.71 2.39 7.55h-8.79z"/><path d="m437.5 242.79v-7.67h40.25v7.67h-15.59v42.78h-9.07v-42.78z"/><path d="m490.35 285.57v-50.44h32.81v7.65h-23.67v13.7h21.97v7.66h-21.97v13.77h23.87v7.66z"/><path d="m557.1 285.57h-17.09v-50.44h17.44c5.01 0 9.31 1.01 12.92 3.02 3.6 2.01 6.37 4.9 8.31 8.66s2.91 8.26 2.91 13.5-.97 9.77-2.92 13.55-4.75 6.68-8.4 8.7-8.04 3.03-13.16 3.03m-7.96-7.91h7.51c3.51 0 6.44-.64 8.79-1.93s4.11-3.22 5.3-5.79c1.18-2.57 1.77-5.78 1.77-9.64s-.59-7.06-1.77-9.62c-1.18-2.55-2.93-4.47-5.23-5.74-2.31-1.27-5.17-1.91-8.58-1.91h-7.78v34.63z"/></g></svg>