<svg width="67" height="50" viewBox="0 0 67 50" fill="none" xmlns="http://www.w3.org/2000/svg"><style>.one{fill:#dd8217}.two{fill:#211c17}@media (prefers-color-scheme:dark){.one,.two{fill:#fff}}</style><path fill-rule="evenodd" class="one" clip-rule="evenodd" d="M43 18v-1h3a6 6 0 00-1-3 6 6 0 00-5-2h-2v1h-1a6 6 0 00-2 2v1h1l3 8a9 9 0 014-6zm11 14a9 9 0 01-10 2l5 6v1a12 12 0 001 0h2a6 6 0 004-3 6 6 0 000-6 6 6 0 00-1-1l-1 1zm-6-14a7 7 0 017 8v2h-1a21 21 0 000 1v1a7 7 0 01-2 1l-1 1a7 7 0 01-8-1 7 7 0 01-3-5v-1a7 7 0 015-6 7 7 0 012-1h1z" fill="#DD8217"/><path class="two" fill-rule="evenodd" clip-rule="evenodd" d="M37 0c2 4 1 8-1 11l-1 1c-1-3-2-8 2-12zM6 21H5c-1 0-3 1-4 4-1 1-2 6 1 11 0-3 1-6 4-10v-5zm2 10a13 13 0 00-1-3l-1 1a24 24 0 00-2 6l-1 3 1 2c1 2 3 3 6 4-2-3-2-7-2-13zm3 2l1 1 4 5 5 8c-3 1-6 0-7-1l-1-1h-1l-1-3-1-4a35 35 0 010-5 19 19 0 011 0zm15 6c-2-3-5-6-8-7l-4 1 2 3 1 2 1 1 1 1a31 31 0 003 6h1l4 2 4-2-5-7zm15-29c3-2 5-4 6-9-5 2-7 6-8 9a8 8 0 012 0zm15 31l2-4a12 12 0 018 1c-2 2-5 3-8 3h-2zm-3 2h-2c2 3 5 6 9 6-1-4-4-5-7-6zm-5-27l-1-2-1-1c2-2 5-4 9-5-1 4-4 7-7 8zm18 11a13 13 0 00-9 0l-1 1v1l1 2c4-1 7-2 9-4zM47 42l-4-6v-1h-1a81 81 0 01-9-21v-3c-3 2-7 8-8 14l3 1 2 2 5 6a59 59 0 0010 11l1 1h1a13 13 0 005 1 146 146 0 01-5-5zm-13-7c-4-4-7-8-10-8-2 0-3 1-4 3h-1l2 1 2 2 4 5a25 25 0 007 7l1 1 4 1 4-1c-4-3-7-7-9-11z" fill="#211C17"/></svg>